/* XPM */
static char *dfc433a531334414adde36d50b481037ELWOtoMsGEdj3F7r[] = {
/* columns rows colors chars-per-pixel */
"64 64 146 2 ",
"   c #D38700",
".  c #D58A04",
"X  c #D88E07",
"o  c #D88F08",
"O  c #DB930C",
"+  c #DE9710",
"@  c #DF9912",
"#  c #E29C16",
"$  c #E39F18",
"%  c #E5A31C",
"&  c #E8A721",
"*  c #EBAA24",
"=  c #EEAE29",
"-  c #EFB02B",
";  c #F1B32D",
":  c #F3B631",
">  c #F6BA35",
",  c #F7BD38",
"<  c #F8BE39",
"1  c #FBC33D",
"2  c #EFAA65",
"3  c #F0AC67",
"4  c #F0AE69",
"5  c #EFBC69",
"6  c #F2B36E",
"7  c #F0BF69",
"8  c #E3B77E",
"9  c #F5BA74",
"0  c #F7BF79",
"q  c #FEC642",
"w  c #FFC843",
"e  c #FBC54A",
"r  c #FEC84A",
"t  c #F7C252",
"y  c #FAC755",
"u  c #FDC953",
"i  c #FAC75A",
"p  c #FCCA5C",
"a  c #F4C366",
"s  c #FACA64",
"d  c #F3C36C",
"f  c #F9C66A",
"g  c #F9CA6B",
"h  c #EEC074",
"j  c #F5C575",
"k  c #F7CB75",
"l  c #F9CC74",
"z  c #F6C27A",
"x  c #F9C37D",
"c  c #F5CB7C",
"v  c #F8CE7F",
"b  c #5F94BE",
"n  c #7E99AD",
"m  c #6C98BA",
"M  c #759EBD",
"N  c #3585C6",
"B  c #3886C6",
"V  c #3E88C4",
"C  c #528FC1",
"Z  c #B0A699",
"A  c #B7AA9C",
"S  c #819CAF",
"D  c #839FB3",
"F  c #86A1B5",
"G  c #8BA1B1",
"H  c #86A4BB",
"J  c #BEB9AE",
"K  c #DCAF86",
"L  c #DCB087",
"P  c #DDB38C",
"I  c #C5B897",
"U  c #C3B79B",
"Y  c #C5B898",
"T  c #DEB692",
"R  c #DFB895",
"E  c #E1B583",
"W  c #E5BB86",
"Q  c #E3B58D",
"!  c #E8B68B",
"~  c #E5B88E",
"^  c #EBBB8B",
"/  c #E1B792",
"(  c #E4BA93",
")  c #E9BD95",
"_  c #E5BD9A",
"`  c #E8BD98",
"'  c #C0B4A5",
"]  c #C8B6A4",
"[  c #D4BDA2",
"{  c #ECC281",
"}  c #F4C484",
"|  c #FAC680",
" . c #F3CD85",
".. c #FCCC86",
"X. c #F2C58C",
"o. c #F5CA8C",
"O. c #FACB8A",
"+. c #EDC196",
"@. c #E5C19D",
"#. c #EDC49B",
"$. c #EFC89F",
"%. c #F2C694",
"&. c #F5CA93",
"*. c #F9CE91",
"=. c #F0C49B",
"-. c #F3CB9B",
";. c #F4D195",
":. c #F3D19D",
">. c #DAC3AB",
",. c #E5C3A2",
"<. c #EDC6A1",
"1. c #EECAA5",
"2. c #E1C7AA",
"3. c #E5C9AA",
"4. c #EECDAB",
"5. c #F0C7A2",
"6. c #F0CBA5",
"7. c #F0CDA8",
"8. c #F1CDAB",
"9. c #F1CEAC",
"0. c #EED0AB",
"q. c #F3D0A3",
"w. c #F1D2A7",
"e. c #F2D1AA",
"r. c #F1D0AD",
"t. c #F2D4AC",
"y. c #EFCFB0",
"u. c #EECFB1",
"i. c #F0CFB0",
"p. c #EFD1B1",
"a. c #EDD2B3",
"s. c #EFD2B2",
"d. c #EBD2B5",
"f. c #EFD3B4",
"g. c #EED4B7",
"h. c #EED5B8",
"j. c #EFD5B8",
"k. c #EFD6BA",
"l. c #EFD8BC",
"z. c #F0D1B1",
"x. c #F0D4B3",
"c. c #F0D2B5",
"v. c #F1D4B5",
"b. c #F0D3B8",
"n. c #F1D7B9",
"m. c #F0D8BB",
/* pixels */
"-.$.1.5.5.5.<.<.<.<.5.5.1.1.1.1.1.` @.1.1.1.6.8.8.8.8.8.9.4.9.4.9.r.z.z.z.z.z.r.r.r.0.4.4.r.z.z.z.4.,.z.p.x.v.v.v.v.v.b.b.b.n.n.",
"=.$.<.<.<.<.1.1.1.6.6.1.6.1.4.4.4.@.,.4.4.4.4.4.4.4.4.4.4.4.4.p.y.p.p.p.p.p.p.p.p.f.f.f.g.g.h.h.g.p.,.f.g.g.g.b.h.h.h.h.g.h.g.h.",
"1.1.1.1.5.6.1.1.1.1.1.1.1.1.1.1.4.@.,.8.4.4.4.0.9.z.i.p.p.p.f.c.c.f.h.h.h.h.h.g.g.g.v.b.c.f.p.p.p.4.,.f.f.z.z.c.z.z.0.p.p.p.p.x.",
"$.+.) 1.8.9.8.4.8.9.9.6.5.8.8.$.$.( ) $.$.$.1.8.9.9.8.1.p.f.h.v.t.q.:.:.:.w.0.f.h.g.v.g.g.h.g.f.z.4.,.r.1.6.8.8.8.9.e.4.8.9.r.z.",
"1.$.#.$.5.5.6.1.1.1.1.4.8.4.4.8.8.@.,.9.9.9.r.z.z.z.z.c.f.w. .g u r r w r r p l ;.p.g.f.f.f.f.c.z.4.,.p.p.p.p.f.g.z.z.p.p.4.4.4.",
"1.1.1.5.5.6.1.1.1.1.1.1.1.1.1.1.4.@.,.4.4.4.4.y.p.p.c.e.c u w w w w w w w w w w r s ;.h.h.h.h.h.h.d.,.b.g.g.g.f.g.g.h.g.f.f.g.f.",
"1.1.1.1.1.4.4.4.4.4.4.4.4.4.4.4.r.@.1.p.p.z.z.c.c.p.;.p w w w w w w w w w w w w w w r l e.g.g.g.g.p.2.h.g.g.g.f.p.v.g.g.b.b.b.h.",
"` ` ` ` ` ` ` ` ` ` ` ` ` ` ` ` ` P ( ` ` ` ` ` ` c r w w w w 1 : * & % * ; < q w w w w p +.,.,.,.,.R ,.,.,.,.,.,.,.,.,.,.,.,.,.",
"Q Q ( ( ( ( ( ~ ~ ~ ~ ! ! ~ ~ ! ! ! ! ! ! ! ~ ! 5 q w w w 1 * O .         . . # ; q w w w t ^ ` ` ` ` ` ` ` ` ` ` ` ` ) ) ) ) ) ",
") ) +.+.+.+.+.+.+.+.+.#.#.#.$.=.=.#.#.=.=.=.#.z r w w q ; O                     . % 1 w w w p %.$.$.$.$.$.$.$.+.+.+.+.+.+.+.#.#.",
"#.` 5.<.<.<.1.5.<.1.1.1.1.1.<.1.1.1.<.<.1.1.%.u w w q * .                           + > w w w f $.$.$.$.<.1.<.<.1.1.<.<.<.<.<.<.",
",.@.4.1.1.1.6.6.1.1.6.6.1.1.1.1.1.1.1.1.1.8.g w w w * .             . . X .           O < w w r } 1.6.6.1.1.1.1.1.4.4.8.1.1.1.1.",
"@.#.1.1.1.1.1.1.1.1.1.1.1.8.1.1.1.1.1.1.1.o.r w w : .           X % : , < > * O         # q w w s 8.4.4.4.4.4.4.4.4.0.4.4.4.4.4.",
"@.@.1.1.1.1.1.1.1.1.1.1.1.1.1.1.1.1.1.1.1.s w w 1 @           @ > w w w w w w ; .       . = w w r &.4.4.4.4.4.4.4.4.4.4.4.4.4.4.",
"@.#.1.1.1.<.<.1.1.<.<.<.<.<.<.<.1.<.<.<.X.r w w = .         @ 1 w q : * * ; < *           O 1 w w g 1.1.1.1.1.5.5.1.<.1.1.<.$.$.",
"Q P ~ ( ( ( ( ~ ( ( ( ( ( ( ( ( ( ( ( ( h w w q @         o > w 1 $ .     . X .           . ; w q y W / ( ( ( ( ( ( ( ( ( ( ( ( ",
"@.@.@.@.@.@.@.@.@.@.@.@.@.@.@.@.,.R _ @.a w w > .     . O * w q * O O O o                   % w w e 8 _ _ _ _ _ _ _ @.@.@.@.@.@.",
"0.r.z.z.z.z.z.z.z.r.r.r.0.0.r.r.z.,.4.r.p w w -       * 1 q w w q 1 1 q > o                 O 1 w q  .f.p.p.p.p.p.p.p.p.0.0.0.4.",
"4.4.4.4.4.4.9.9.y.4.4.4.0.p.p.p.c.,.4.e.u w w &       * w w w w q w w w < O                 X < w w c 4.4.4.4.4.4.4.4.4.4.4.4.4.",
"9.r.4.8.8.1.4.8.r.9.9.4.4.4.4.4.9.,.1.6.u w w %       . & q 1 % # # # # O                   . > w w l 4.9.4.4.4.8.4.4.4.4.4.4.4.",
"1.4.r.r.z.r.9.r.r.r.8.8.6.8.1.1.8.,.1.q.u w w %       . * q q & $ $ $ $ O                   . > w w f #.=.1.1.1.6.r.r.8.r.h.l.b.",
"9.0.r.9.9.9.4.4.4.4.8.8.9.9.r.r.r.,.1.w.u w w %       * w w w w w w w w < O                 . > w w k 4.4.4.4.4.4.4.4.4.9.p.4.9.",
"4.4.4.4.9.i.9.4.y.i.i.i.z.p.p.z.p.,.4.r.p w w *       & 1 q w w 1 1 1 1 : X                 O 1 w q c 4.4.4.4.4.0.4.4.4.4.4.4.4.",
"4.4.4.4.4.4.4.8.8.8.1.1.4.4.4.4.4.@.,.4.s w w : .     . O * w q * O O O .                   @ q w q { 4.4.1.1.1.1.1.1.1.1.1.1.1.",
"P P Q Q Q Q P Q Q Q Q Q / / / / / P P / 7 w w 1 O         . > w 1 % .     . O .             * w w e E ( ( ( R T T / / / / / / R ",
") ( +.+.+.+.+.+.+.+.+.+.+.+.+.#.+.+.+.+.} w w w %           + < w q > = * : 1 *           . > w w i +.+.+.+.@.@.@.+.+.+.+.+.+.+.",
") ) +.+.#.+.+.+.+.+.+.+.#.#.#.#.+.#.+.#.+.y w w > .           + : q w w w w w - .         $ q w w j #.+.#.$.#.$.#.#.#.#.#.#.$.#.",
"$.@.1.1.1.1.1.1.1.1.1.1.1.1.1.1.1.1.1.1.1.k w w q %             . % ; > > : & O         o > w w u %.<.<.<.<.$.$.$.$.$.$.$.$.$.$.",
",.,.9.8.9.9.9.9.8.4.4.4.4.4.4.4.4.1.8.8.4.-.u w w 1 @               . . . .           . = w w w k 1.1.1.1.1.1.8.1.1.1.1.1.1.1.1.",
",.,.4.4.4.4.y.y.4.4.4.4.4.4.9.9.9.9.4.4.4.4.c w w w > O                             . & q w w p 8.z.z.z.z.z.z.z.p.y.i.i.9.9.9.9.",
",.,.8.8.8.8.8.8.8.8.4.4.4.4.1.1.1.1.1.1.1.1.$.s w w w > @                         . * q w w r o.4.4.4.4.4.4.4.1.1.1.1.1.6.6.6.1.",
"#.` <.$.<.<.<.<.<.$.$.$.<.$.$.$.<.<.1.1.<.<.1.%.y w w w 1 * O                 . # : w w w q d +.+.+.+.+.+.+.+.+.+.) +.+.+.+.+.+.",
"P P T P T T T T T T T T T T T T T P P / T T R R W i w w w w < * # O . . o O % ; 1 w w w w d P P P P L P P P P P P P Q P P P P P ",
"<.$.$.$.$.$.$.$.<.<.$.<.<.<.<.<.<.` @.1.1.6.1.1.1.%.s w w w w w q 1 < > < 1 w w w w w r c 4.4.p.p.4.,.p.p.p.p.p.f.f.f.p.g.f.f.f.",
"$.$.<.<.<.1.1.1.1.1.1.1.1.1.1.4.4.@.,.4.4.4.4.4.4.4.8.c u w w w w w w w w w w w w w s :.h.h.b.b.h.d.2.g.f.f.f.g.g.h.h.h.h.h.g.h.",
"1.1.1.1.1.1.1.1.1.1.1.1.1.1.1.1.1.@.,.4.4.4.4.4.9.9.9.p.q.c u w w w w w w w w r s o.0.f.f.f.f.f.f.4.,.p.z.c.z.z.p.p.p.0.0.z.z.z.",
"$.+.) $.8.9.8.8.8.9.r.8.1.8.6.$.$.( ) #.$.<.1.8.9.9.8.1.p.c.e.;.v g s s s l  .:.p.f.f.v.h.h.g.c.z.4.,.r.6.1.8.8.8.9.r.r.4.8.9.r.",
"6.1.$.$.<.1.1.1.6.8.8.8.8.8.8.8.8.@.,.9.4.r.p.z.z.z.c.c.f.g.g.h.h.b.b.v.g.h.h.h.g.f.f.f.f.f.f.p.p.4.,.p.p.p.c.c.c.c.c.p.p.4.4.4.",
"1.1.1.1.1.1.1.1.1.2.>.>.>.>.>.>.3.@.,.4.4.4.4.4.z.z.z.c.p.f.g.g.h.h.b.h.b.b.b.h.h.h.h.h.h.h.h.h.b.p.2.h.h.g.g.g.b.v.v.g.f.g.g.g.",
"6.6.1.1.6.1.1.8.J b C C C C C C M [ 1.r.r.r.z.z.z.z.c.c.v.f.p.z.x.v.c.c.v.v.v.g.v.g.g.f.f.f.f.g.g.y.2.g.g.g.p.z.c.v.g.v.b.h.b.b.",
"( ( ( ( ( ( ( ( D N N N N N N N V Z Q ( ( ( ( ( ( ( ( ( _ _ _ _ _ ` _ _ _ ` ` _ _ _ _ _ _ @.1.q.:.-.( ,.,.,.,.@.@.@.@.@.@.@.,.,.",
"Q Q ) ) ( ) ( ~ S N B B B B B B V A ^ ^ ^ ~ ~ ~ ~ ~ ~ ~ ( ( ( ) ( Q ` ` ) ) ) ` ` ` ` ) ) } ........} ^ ) ` ` ` ) ` ` ) ) ` ) ) ",
") ) +.+.+.+.+.+.F N B B B B B B V Y ....O.o.%.+.#.+.+.+.+.+.%.X.o.} o.%.+.+.+.+.+.=.%.O.................&.#.#.$.=.=.=.=.=.=.=.=.",
"@.` 5.<.<.1.<.5.F N B B B B B B V Y ..........&.-.=.-.&.O.O.O...........&.=.$.$.%.O.......................-.5.<.<.<.1.1.1.1.1.1.",
",.@.4.4.1.1.1.1.H N B B B B B B V Y ......................................-.-.o...........................O.6.8.6.6.1.1.1.1.1.4.",
"@.#.1.1.1.1.1.1.H N B B B B B B V Y ......................................................................O.9.0.4.4.y.4.4.4.4.4.",
"$.@.1.1.1.1.1.1.H N B B B B B B V Y ......................................| z ..........................O.-.9.9.4.4.4.4.4.4.4.1.",
"@.#.1.1.1.1.1.1.F N B B B B B B V Y ..................................| 0 9 x ........................&.$.1.1.1.1.<.$.$.$.$.<.<.",
"P P ~ ( ( ( ( ( S N B B B B B B V Y ..............................x 9 6 6 x ......................} W ( ~ ~ ( ( ( Q / Q ~ ( / / ",
"@.@.@.@.,.,.@.@.D N B B B B B B V Y ....................| x z 9 6 3 4 9 ........................-.#.T @.@.@.@.,.,.,.,.,.,.,.,.,.",
"z.i.z.z.z.z.r.z.H N B B B B B B V Y ................| 6 4 3 2 2 2 6 x ......................O.6.p.4.,.p.p.p.p.0.p.p.p.p.p.p.p.p.",
"4.4.4.4.4.4.4.0.H N B B B B B B V Y ................0 2 2 2 2 6 z ........................-.e.0.0.4.@.0.4.4.4.9.9.4.4.4.4.4.4.4.",
"9.8.8.1.1.1.6.8.H N B B B B B B V Y ................x 4 4 6 z ........................O.w.p.p.0.4.1._ 4.4.4.9.9.4.4.4.4.4.4.4.4.",
"6.4.r.z.z.z.r.9.H N B B B B B B V Y ..................| | ..........................&.8.8.1.$.$.$.#.~ $.<.6.6.1.1.e.9.r.0.v.m.h.",
"9.9.9.r.r.9.9.8.H N B B B B B B V Y ............................................*.w.z.p.r.z.z.z.r.1.@.9.8.8.4.4.4.4.4.y.p.p.4.4.",
"0.4.0.9.9.9.9.p.H N B B B B B B V Y ........................................O.-.4.4.4.0.4.4.4.4.4.4._ 4.4.4.4.4.4.4.4.4.4.4.4.4.",
"1.1.1.1.1.1.1.8.H N B B B B B B V I ......................................&.6.1.1.4.4.4.4.4.4.1.1.,._ 1.1.1.1.1.1.1.1.1.1.1.1.1.",
"L K P P P P P P n N B B B B B B V U O.o.X.X.o.O.......................O.^ T T T T T T T T T T T T T P / / / T T T T T T T T T T ",
"( ( +.+.+.+.+.+.G N N N N N N N V ' =.+.+.+.+.+.%.o.O.............} %.#.#.#.#.#.+.+.+.+.+.#.#.+.+.#.#.#.#.+.$.+.+.+.+.+.+.+.+.+.",
") ) #.+.+.+.+.=.] m b b b b b b F _ +.+.+.+.+.+.$.+.=.%.&.O.O.o.%.~ +.+.+.+.+.+.+.+.+.+.+.+.+.+.+.+.+.+.+.#.$.#.#.$.$.#.#.#.#.+.",
",.@.8.8.6.1.1.1.1.3.2.2.2.2.2.2.4.1.1.1.1.1.1.1.1.1.1.1.1.<.<.<.<.` <.<.<.$.$.<.<.<.<.<.<.<.<.<.<.<.<.<.<.<.<.<.$.$.$.$.$.$.$.$.",
",.,.9.9.9.8.9.9.4.4.8.4.4.8.8.8.8.4.4.1.1.1.1.1.1.1.1.1.1.1.4.4.1.` 1.1.1.1.1.4.1.1.1.4.1.1.1.1.1.1.1.1.1.1.1.1.1.1.1.1.1.1.1.1.",
",.,.i.9.9.9.9.4.4.4.4.4.4.4.4.4.9.4.4.4.9.4.4.4.4.9.9.8.4.4.8.8.8.@.4.4.4.9.9.4.4.z.z.z.z.p.p.z.z.z.z.z.z.z.z.z.z.z.z.r.9.4.4.9.",
",.,.9.8.8.8.8.4.4.4.4.8.1.4.4.4.1.1.1.1.1.1.1.<.<.5.<.<.$.$.<.<.$.` 6.6.6.8.8.6.8.8.8.9.8.8.8.8.8.8.8.8.8.8.4.8.9.9.8.8.8.1.1.4."
};
