/* XPM */
static char *_bfe1b0a812a43dfe25b1e699501c5f6iExeAFEMkkq7VBlv[] = {
/* columns rows colors chars-per-pixel */
"64 64 207 2 ",
"   c #47340D",
".  c #493711",
"X  c #4D3A13",
"o  c #4E3B18",
"O  c #513E12",
"+  c #513E19",
"@  c #554214",
"#  c #594614",
"$  c #5E4A15",
"%  c #54411B",
"&  c #5B471C",
"*  c #624D14",
"=  c #644F19",
"-  c #665116",
";  c #6B5619",
":  c #735D16",
">  c #735D1B",
",  c #786318",
"<  c #7C6519",
"1  c #7E681A",
"2  c #5B4926",
"3  c #624E23",
"4  c #665226",
"5  c #6A5625",
"6  c #6A5729",
"7  c #6D592B",
"8  c #725D25",
"9  c #6D5B35",
"0  c #6D5B3A",
"q  c #715E3B",
"w  c #7B6528",
"e  c #766234",
"r  c #7E6A34",
"t  c #76633B",
"y  c #79663B",
"u  c #7C6838",
"i  c #766444",
"p  c #7A6644",
"a  c #7C6944",
"s  c #7D6A4A",
"d  c #866C17",
"f  c #836C1A",
"g  c #8F7617",
"h  c #877019",
"j  c #8B721B",
"k  c #907717",
"l  c #90771D",
"z  c #947B1B",
"x  c #997E1C",
"c  c #846C23",
"v  c #826C2B",
"b  c #8C7422",
"n  c #887128",
"m  c #937B22",
"M  c #957B26",
"N  c #836B36",
"B  c #806E3F",
"V  c #8A7538",
"C  c #937D37",
"Z  c #826C46",
"A  c #856D4B",
"S  c #886F4C",
"D  c #86714D",
"F  c #897648",
"G  c #8A714E",
"H  c #826F50",
"J  c #857252",
"K  c #8B7452",
"L  c #8E7955",
"P  c #84755A",
"I  c #8B785A",
"U  c #927956",
"Y  c #957B58",
"T  c #947C5A",
"R  c #8F7F65",
"E  c #9D821C",
"W  c #A1861E",
"Q  c #A5891E",
"!  c #AA8E1E",
"~  c #AE911E",
"^  c #B3951E",
"/  c #B7981F",
"(  c #B99A1F",
")  c #9D8424",
"_  c #9F8833",
"`  c #A18721",
"'  c #A68B22",
"]  c #AA8E22",
"[  c #A3892A",
"{  c #AE9121",
"}  c #B29522",
"|  c #B69821",
" . c #BC9D21",
".. c #B69A2B",
"X. c #A28B39",
"o. c #A7903A",
"O. c #B79B33",
"+. c #BFA025",
"@. c #BDA23A",
"#. c #C1A01F",
"$. c #D2AE1F",
"%. c #D7B21E",
"&. c #C09F21",
"*. c #C3A222",
"=. c #C8A723",
"-. c #CCAA23",
";. c #C2A329",
":. c #C8A728",
">. c #CBAA2A",
",. c #D2AE21",
"<. c #D5B121",
"1. c #DAB521",
"2. c #DFB821",
"3. c #C1A539",
"4. c #E4BD20",
"5. c #EBC220",
"6. c #9F8840",
"7. c #9A8458",
"8. c #A99449",
"9. c #B0974B",
"0. c #A68A57",
"q. c #BBA244",
"w. c #BCA656",
"e. c #8E826D",
"r. c #9C8462",
"t. c #998769",
"y. c #978A75",
"u. c #A28662",
"i. c #A68A67",
"p. c #A38D6C",
"a. c #AA8D6A",
"s. c #AA9272",
"d. c #A89677",
"f. c #B79A77",
"g. c #B49B7B",
"h. c #BDA862",
"j. c #B2A27E",
"k. c #C4AB4F",
"l. c #DBB35E",
"z. c #EABF5F",
"x. c #C19E7B",
"c. c #DCB562",
"v. c #DCB867",
"b. c #DCB96A",
"n. c #C5A27D",
"m. c #E5BC63",
"M. c #ECC464",
"N. c #9F9584",
"B. c #A59A87",
"V. c #B69E80",
"C. c #AFA28D",
"Z. c #B8A384",
"A. c #ACA495",
"S. c #B3A99A",
"D. c #B6AFA4",
"F. c #BAB4A9",
"G. c #C3A583",
"H. c #C9A985",
"J. c #CAAC89",
"K. c #D5AD87",
"L. c #DBAE86",
"P. c #D1AE89",
"I. c #D6B089",
"U. c #DDB38D",
"Y. c #CCB191",
"T. c #D5B693",
"R. c #DEB691",
"E. c #D8B997",
"W. c #DCBE9C",
"Q. c #E1B48C",
"!. c #E1B792",
"~. c #E4BA94",
"^. c #ECBE94",
"/. c #E4BD99",
"(. c #E8BE9A",
"). c #C2BDB4",
"_. c #C5BFB8",
"`. c #DDC19D",
"'. c #EDC195",
"]. c #E5C29E",
"[. c #EDC49C",
"{. c #F0C49D",
"}. c #DBC2A5",
"|. c #C6C1BA",
" X c #C9C4BD",
".X c #E5C4A3",
"XX c #EDC6A1",
"oX c #EEC9A4",
"OX c #E6C9A9",
"+X c #EECDAB",
"@X c #F0C7A0",
"#X c #F0CBA5",
"$X c #F0CBA6",
"%X c #F0CEAC",
"&X c #EED0AE",
"*X c #F1D0AE",
"=X c #EECFB1",
"-X c #EED2B3",
";X c #EED3B5",
":X c #EFD6B9",
">X c #F1D2B2",
",X c #F0D6B9",
"<X c #CCC8C2",
"1X c #D0CCC7",
"2X c #D1CEC9",
"3X c #D4D1CE",
"4X c #D6D3D0",
/* pixels */
"[.[.[.[.[.[.[.[.[.[.XXXXXXXXXXXX(.(.XXXXXXXXXXoXXXW.J.g.p.r.U U K K K U T T p.g.J.`.oX+X-X>X>X>X-XOX:X:X:X:X:X:X:X:X:X:X:X:X:X:X",
"XXXXXXXX$XXXoXoXoX$XoXoX+X+X+X+X.X.X*X&X+X&X+XW.Z.t.U K K K A G G G G K K S G K T p.Z.}.;X>X;X;X+X.X;X;X;X>X,X:X;X;X;X;X;X;X;X;X",
"[.[.[.$X$XoX+X+X+X+X$XXX$XoXXXXX'.'.$XoXoXW.Z.r.K S S G G K A G G G G K K S S G G K K r.Z.}.-X>X+X.X>X>X%X%X%X%X%X%X+X*X>X>X>X>X",
"'.^.[.$X%X%X+X+X%X%X%X$X$X$X$XXX'.(.$X[.H.r.K K K S S G G G A G G G G K G A A G G K S G K t.Y.+X+X.X%XoX+X%X*X*X*X*X%X+X%X%X%X%X",
"oXXXXX@XXXXXXXXXXXoX$X%XoX+X%X%XXXXX.Xg.U G G K K S A K K L K K J A A J K K K K G G S K S S U V.}..X;X;X;X;X;X;X;X;X;X;X-X=X=X&X",
"XXXXXXXXoXoXoXoXXXoXoXoXoXoXoX+XXXT.s.K G G G K G K K J s q 9 7 8 5 4 4 7 9 i H K K A G S S G K s.}.,X;X;X;X;X;X:X:X:X;X>X:X:X:X",
"oXoXoXoXoX+X+X+X+X+X+XoX+X+X+X+XW.p.S G G G G K K s 9 4 = > , j k j 1 f j < ; 4 9 s K G S S G S G s.}.-X-X-X-X&X&X-X-X;X;X;X:X;X",
"L.Q.Q.Q.Q.Q.Q.Q.Q.Q.Q.Q.Q.Q.Q.K.p.K A G G G K J 0 5 ; : < l x ! ~ W z E ! Q j < : 4 0 J G S G G G G s.T./././././.~.~.~.~.~.~.~.",
"Q.'.'.'.^.^.^.^.^.^.^.^.^.^.~.s.K K S K G K s 7 , 1 j g g E E ! ~ W x E ~ ! E z k f > 7 s G G G G S G f.(.[.'.'.'.'.'.'.'.'.'.'.",
"Q.[.[.[.[.[.[.[.[.[.[.[.{.[.Z.L K K A S K p 5 1 k z z k g E E ! ^ Q E E ! ! E z ) ) m f 5 p L G G S S L G.[.[.[.[.[.[.[.[.[.[.[.",
"~.$XoXoXoXXXXXXXoXoXoXoXoXT.T K K G A K p 4 , E Q E x k k E E ~ ^ Q E E ! ~ E x ) ` ] Q j 5 s G G S S G r.T.oXoXoXoXoXoXoXoXoXoX",
"/.+XoX+XoXoX$XoXoX$XoX$XXXs.S K K G S s 4 , x ^ Q E x z k E E { ..' E E ~ ~ E E ` [ { / ! j 7 s G S S K D s.+X+X+X+X%X+X+X+X+X+X",
"!.XXXXoXoXoXoXoXoX+X+X%XY.K A K K K A 6 > j Q ^ Q E E k k E W w.j.M E E ~ ~ E E ` ' } / / ! j 7 D G S G S I E.-X-X-X-X-X-X&X&X&X",
"~.oXoXoXXXXXXXXXXXXXXXXXs.A S K G K 0 > f E Q ^ W E E k z E W 9.I V E E ~ ^ E E ` ] { / / / Q < q G S G A A g.oX+X+XoXoXoXoXoXoX",
"!.[.[.XX[.[.[.[.[.[.[.T.T A S K K s 8 f x E Q ^ E E E z z ` ` 6.m X._ E ~ { E E ' ] ^ ^ ! ~ / x 8 s G G A A T E.[.[.[.[.[.[.'.[.",
"L.U.U.U.U.U.U.U.U.U.U.f.K A S K J 9 f x E W ] ~ E E E z x ` 8.X./ } 8.` ^ ] W E ' { / ! ` ]  .^ h 9 G G p S G f.U.U.U.U.I.U.U.U.",
"+X+X+X+X+X+X+X+X+X+XoXs.G A S K s 8 k Q W ` ] ~ E E E z x [ 7.' / ^ o.8./ ] W W ] { ^ Q ' ' ] | E 8 A G p A A g.+X+X+X+X+X+X+X+X",
"+X+X+X&X&X*X%X%X+X>XOXr.G A A K q f W ~ Q ' ~ ^ E E E z E 8.C ^ / ^ ` 9...~ ` W ] { ~ ' ' ' ' { ^ f t G p A A p.+X+X+X+X+X+X+X+X",
"+X+X+X+X+X%X%X+X+X%XW.U G A A J 7 g ^ ^ ' ' } ^ W W E x [ 7.M } | } ` X.9.] ' ' { } { ' ] ] ' ]  .z 7 G p A S r..X+X+X+X+XoXoXoX",
"%X*X%X%X%X$X%X%X*X*XT.K G A A s 8 E / ^ ' ' } ^ W W b u p.t.u N N N u K g.F N M { | } ' ] ] ] ]  .Q w D a S S U W.*X%X+X;X:X-X+X",
"+X*X*X>X*X*X*X%X%X%XH.S G A S i > Q  ./ ] ] | / W W c y.S.y.e.y.y.y.y.B.B.y.e.w {  .{ ' ] ' ] ]  .^ 1 a Z A A K T.*X%X-X;X;X-X+X",
"&X+X+X+X+X+X+X+X+X>XG.S G Z G q , ~  ./ ] ]  ./ Q Q n D.|.B.<X3XB.B.3X<Xy.D.F.N ! | ] ] ] ' ' ]  ./ j p Z A A K Y.-X+X+X+X%X%X%X",
"-X-X>X>X>X>X>X>X>X>XG.S G Z D 9 , /  . .{ }  ./ Q W n F.3X3X3XF.2 + B.3X2X3XF.V { } ] ] ] ' ' {  . .z y Z A S K J.%XoX+X$XoXoXoX",
"(.(.(.(.(.(.(.(.(.(.x.S S Z D 9 1 |  . .} }  .| ' W C ).3X3X2XP     2 ).4X3X).V ! } ] ] ] ' ] {  .*.E t Z A S K H..X.X].].]..X.X",
"L.~.~.~.~.~.~.~.~.~.n.S S Z K t 1 | &. .} } +.| ' E C |.3X3X XP 2 2 y. X3X3X|.V Q } ] ] ] ' Q { | *.W u Z A G K H.(.~.~.~.~.~.~.",
"Q.'.'.'.'.'.'.'.'.[.K.G S Z K t < } *. .} } *.} ' E C ).<X2X3X3Xe.0 1X3X3X3X XV Q | { ] ] ' Q { } *.W u A A G K I.[.[.[.[.[.[.{.",
"!.[.[.[.[.XXXXXX[.[.R.K A Z K p w  .*. . . .*.} ' E C F.|.|.2X3XA.e.1X3X3X2X).V W | { ] { ' ! } } *.W y D A G K I.[.[.[.[.[.[.[.",
"/.+X+X%X+X+X+X+X+X%X].U S Z K s t.3.*.*.*.=.*.} ` E C B.S.D.). X X|._._.).D.N.r W  .{ ] { ' ! } } *.E y G S G U R.XXXXXXXX[.XXXX",
"/.%X+X+X+X+X+X+X+X+X.XT A Z G s t.k.*.*.=.=.*.} W E m w e y Z K 7.7.L F B r e w W  .{ ] { Q ! } }  .E a G G G T .X*X%X%X%X%X%X+X",
"/.+X+X+X+X+X%X%X+X+X+Xr.A Z G A J @.=.*.=.=.;.} Q E Q Q x z x E ! ^ Q x E ] ] ` ^  .{ { { Q ! } }  .x a G G G 7..X%X%X%X%X%X%X+X",
"~.$X$X$X$X$X$X$X$X$XXXi.A Z G D R k.=.*.=.-.;.} Q E Q ! ] ] ] { *.-.*.} { ;.+.| *.*.} { { Q ! } }  .m s K G G u.'.{.[.@X{.{.[.[.",
"L.~.~.~.~.~.~.~.~.~.~.a.A A S J J w.=.=.=.-.;.} ] W Q Q ] ] ] {  .-.*.} {  .;.| *. .} { } ! ~ | |  .m s K G G u.Q.Q.Q.Q.Q.Q.Q.Q.",
"(.(.(.(.(.(.(.(.(.(.(.f.A A S K w { -.=.-.-.;.} ] W Q Q f < z {  .-.*.} {  .;.| =. .} } } ! ~ l j E b A K G G a.]..X].]..X.X.X.X",
"[.[.XXXX@XXXXXXXXXXX$Xx.S A S K w ~ *.k Q =.+.} ! W Q j O X ; x } -.=. .^  .} b  .*.} } } ! x & & > w J K S G g.:X:X,X:X:X:X,X,X",
"XXXXoXoXoXoXoXoXoX+X%XH.G S S K r E : O * E ;.} ~ Q z # . . O * W =.-. .} z = & , | } } } E = + % % 2 J K G G g.>X;X;X;X;X;X>X;X",
"[.'.[.$X%X%X+X+X+X+X%XP.G S S K e $ X O X # M } ~ E * . . . . . - ^ -.*.z @ @ % X > ] } { ; X % % o 2 J K G G f.%X%X&X&X*X*X>X>X",
"'.'.[.$X%X%X%X%X%X%X*XR.K S G K 0 . X X X @ 3 b ! : . . . . X . . > =.Q & X X % @ & > ~ f . o % % + 2 K K G G H.>X>X*X+X+X+X%X*X",
"$XoXXXXXXXXXXXoXoXoX%XW.U S G K i . X O # @ 2 & : X . . @ ; # X . @ g - + X X $ # % % ; @ . o & > # 2 K G G G Y.,X>X;X;X-X-X-X-X",
"XXXXXXXXoXoXoXoXoXoXoX].T S G K i X $ E Q = 2 % X . . O g ~ l $ O $ * O % o , / d % + o X . @ z  .j 6 K G G K E.,X>X,X;X;X:X:X;X",
"XXXXXXXXXXXXXXXXoXoXoX].r.S G K s # E *.<.~ w % X . X f { ^ / Q : = @ O + > / <.-.l @ o X . f  .;.W e K G G K T.+X+X+X+X=X-X-X;X",
"L.Q.Q.Q.Q.Q.Q.U.Q.Q.Q.L.0.S G K A c ~ ( <.*...f - $ , ! ~ ^ / / ~ f # @ ; ~ / ,.<.*.z ; $ : ^  .;.E t K G G K P.~.!.!.!.!.!.!.!.",
"Q.'.'.'.'.'.'.'.^.^.'.^.a.S G K J b ~ ( <.=.;. .! Q ! ~ ~ } / / / / k - ^  ./ -.<.*. .^ Q ..@. .*.E y L G G U !.{.'.'.{.{.{.{.{.",
"Q.[.[.[.[.[.XXXX[.[.[.XXf.S G K K n ! ( <.-.;.;./ / ~ ~ ^ ~ / / / / / ( <.*./ -.1.=. . .w.j.g.w.;.x p L G G Y ~.@XXX[.[.[.[.XX[.",
"~.oXoXoXoXoX+X+XoXoXoX$Xf.S G G K v ! ( <.-.;.;./ / ^ ^ ^ ~ / / /  ./ <.1.=./ *.1.,. .O.Z.y.t.V.3.l p K G G 7.[.$XoXoXoXoXoXoXoX",
"~.oXoXoXoXoXoXoXoX$XoX$XG.S S G K v Q ( 1.-.;.;. ./ ^ ^ ^ ^ /  ./  .( <.1.-. .*.1.<.#.O.C.C.C.C.q.g s K G G r.oX+X+X+X+X+X+X+X+X",
"!.XXoXoXoXoXoXoXoXoXoX%XJ.G S G L r E #.1.-. .;. . ./ ^ ^ ^ /  ./  . .<.1.,. . .<.1.=.[ d.D.D.C.O.j s K G G i.+X&X=X=X=X+X+X+X+X",
"~.oXoXoXoXoXXXXXXXXXXXXXP.K S S L r E #.1.-. .:. . ./ ^ / ^ /  . . . .<.2.,. . .<.2.=.~ B e.y.0. .c A K S G a.XXXXXXXXXXXXXXXXXX",
"U.[.[.[.[.'.'.'.[.[.[.[.I.K S S L u _ ;.1.,. .:.*. . ./ / ^ /  . . . .1.2.<. . .<.4.-. .E v C | / c J K G G a.'.'.'.'.'.'.'.'.'.",
"U.U.U.U.R.R.R.R.R.R.R.R.P.U S S K p t.@.%.,. .:.;. . ./ / / / /  . . .1.4.<.&.*.1.4.,.*.*./ / *./ w J K S G a.!.R.R.R.R.R.R.R.R.",
"*X>X>X>X>X%X+X+X+X+X%X%X.XT S S K p I q.%.,. .:.:.*. ./ / / / /  .*.*.1.4.<.*.*.1.4.<.*.*./  .*./ w J G S G Z.-X-X-X-X-X-X-X-X-X",
"+X+X+X%X%X%X-X-X&X-X>X>X+Xr.S S K s J q.$.<. .:.:.*. ./ / / / /  .*.*.1.4.<.*.*.1.4.<.:.:. . .*./ w J G G G G.%X+X+X+X+X+X+X+X+X",
"%X+XoX+XoX+X+X+X+X+X+X+X+Xi.S S K A I h.$.<. .:.:.*. ./ / / / /  .*.*.2.4.-.*.=.4.4.1.=.:.+. .*.^ w K G K K J.%X+X+X+X+X+X+XoXoX",
"%X%X%X*X%X%X%X%X%X%X+X+XoXa.A S K D a 9.,.<. .=.-.*. ./ / /  . . .*.*.2.4.,.*.=.4.5.2.=.=.*. .*.~ e K S K K P.%X&X%X%X+X>X,X>X+X",
"%X*X*X*X>X*X*X%X%X%X+X+X%Xf.A S G J c ^ -.<.*.*.>.:. ./ / /  . .*.*.*.4.4.,.*.=.4.5.4.-.=.*.*.*.! e K S K U T.%X+X+X+X&X-X&X&X+X",
"+X%X%X%X%X%X+X+X+X+X%X=X>Xg.S S G K c ^ -.2.*.*.>.:.*./  ./  . .*.=.=.4.4.-.*.=.4.5.4.,.=.=.*.*.Q e K A K U W.*X+X+X+X+X+X+X+X+X",
"*X>X*X%X%X>X>X>X>X>X>X>X>XG.G G G K w ^ -.4.=.*.>.=.*./  ./  . .*.=.-.5.4.-.=.*.2.5.5.1.=.=.*.*.E t K A G T ].%X%X%X$X$X%X%X$X$X",
"Q.!.!.!.!.!.!.!.!.!.!.!.~.x.G S G K r ~ -.4.,.*.-.-.*. . ./  .*.*.=.-.5.4.-.*.*.1.5.5.1.=.=.*.*.x y K S S T R.(././././././././.",
"L.~.~.(.(.~.~.(.^.~.~.~.^.H.K S G K r ! -.5.<.*.-.-.*. . ./  .*.=.:.-.5.4.-.*.*.<.5.5.2.=.=.*.*.z p K G S 7.!.(.(.(.(.(.(.(.(.(.",
"Q.'.'.'.'.'.'.'.'.'.'.'.{.I.K S G K u Q <.5.2.*.=.-.=. . ./ *.*.=.=.<.5.4.-.*.*.-.5.5.2.-.=.=.*.l p K K A u.'.[.[.[.[.[.[.[.[.[.",
"!.XXXXXXXXXXXXXXXXXXXXXXoXE.U S S K a W 1.5.2.*.=.-.=. . ./ *.*.=.=.1.5.4.-.*.=.-.4.5.1.-.*.=.*.j s K K Z u.[.[.[.[.[.[.[.[.[.'.",
"/.+X%X%X+X+X+X+X+X+X+X+X+X].T S S K Z E 1.5.4.=.*.=.=. . ./ *.=.=.=.1.5.4.-.*.=.-.5.5.1.-.*.=.*.b s K K Z i.XXXXXXXXXXXXXXXXXXXX",
"/.%X%X%X%X%X%X+X%X+X+X+X+X.X7.S S K A x 4.5.5.-.*.=.=.*. ./ *.=.-.-.2.5.2.=.*.=.-.5.5.1.-.*.=.+.c A S K A s.+X%X%X%X%X%X+X+X%X+X",
"/.%X%X%X%X%X+X+X%X%X%X%X%X+Xu.S S K D m 4.5.5.-.=.=.=.*. . .*.=.-.-.4.5.2.-.=.=.-.5.4.<.-.*.=.+.c A A A S f.*X%X%X%X%X+X+X+X%X%X",
"~.oXXXXXXXoX$XXX$X$X$X$X$XXXa.S G K K 9.M.M.M.m.b.b.b.b.v.v.b.v.c.m.M.M.m.c.l.l.l.z.m.m.c.c.v.c.0.K S s G f.[.[.[.[.[.'.'.'.[.[."
};
