/* XPM */
static char *_d8b278e208d4ce4a93ea5bb879cd729OcENN3KGqe95IVxG[] = {
/* columns rows colors chars-per-pixel */
"64 64 152 2 ",
"   c #DAAA7F",
".  c #DEAD82",
"X  c #DBAE8D",
"o  c #DFB383",
"O  c #DDB48C",
"+  c #DFB88F",
"@  c #DCB592",
"#  c #DDBB96",
"$  c #D5B79B",
"%  c #D6BA9C",
"&  c #DDBC9C",
"*  c #E0AF84",
"=  c #E2B186",
"-  c #E2B985",
";  c #E2B38B",
":  c #E4BE8C",
">  c #E1B594",
",  c #E3BB94",
"<  c #EABE95",
"1  c #E3BD9B",
"2  c #E9BE9B",
"3  c #F2BF92",
"4  c #DDBEA2",
"5  c #E3BFA0",
"6  c #DEC19D",
"7  c #EBC28E",
"8  c #E6C293",
"9  c #ECC396",
"0  c #E4C29C",
"q  c #ECC39C",
"w  c #ECC89C",
"e  c #F1C894",
"r  c #F1C59C",
"t  c #F3C99F",
"y  c #DCC3A5",
"u  c #DFC6A8",
"i  c #DFCAAB",
"p  c #E4C3A2",
"a  c #EBC6A2",
"s  c #E7C9A7",
"d  c #EDCAA5",
"f  c #E5C6AA",
"g  c #EDC7AB",
"h  c #E4CBAC",
"j  c #EDCCAA",
"k  c #F1C6A2",
"l  c #F2CBA5",
"z  c #F4CAA9",
"x  c #F0CEA9",
"c  c #F1CEA8",
"v  c #F2CFA9",
"b  c #F1CFAA",
"n  c #F2CEAA",
"m  c #F3CFAB",
"M  c #F0CCA8",
"N  c #F5CDAA",
"B  c #F6CEAB",
"V  c #F0CDAD",
"C  c #F1CEAE",
"Z  c #F2CFAF",
"A  c #F3CFAF",
"S  c #F5CCAC",
"D  c #F5CEAD",
"F  c #F7CFAC",
"G  c #F1CDAB",
"H  c #EDD0AE",
"J  c #EED0AE",
"K  c #EED1AF",
"L  c #EFD1AF",
"P  c #EED0AE",
"I  c #F2D0AB",
"U  c #F4D0AE",
"Y  c #F5D1AF",
"T  c #F3D1AD",
"R  c #E4CFB0",
"E  c #E7CEB0",
"W  c #E9C9B0",
"Q  c #EACAB1",
"!  c #EBCBB2",
"~  c #EDCEB1",
"^  c #EECFB0",
"/  c #EECFB3",
"(  c #ECCEB1",
")  c #F2CFB1",
"_  c #F1CFB3",
"`  c #F3CDB1",
"'  c #EDD0B0",
"]  c #EFD0B1",
"[  c #EFD2B0",
"{  c #EDD1B3",
"}  c #ECD1B4",
"|  c #EED0B4",
" . c #EDD2B5",
".. c #ECD3B5",
"X. c #ECD2B7",
"o. c #EED3B6",
"O. c #EED0B6",
"+. c #EDD4B6",
"@. c #EED5B6",
"#. c #ECD2B4",
"$. c #ECD8B5",
"%. c #ECD4B8",
"&. c #EED4B9",
"*. c #EFD4B9",
"=. c #EDD5BB",
"-. c #EFD5BC",
";. c #EED6BC",
":. c #ECD7B8",
">. c #F3D0B0",
",. c #F0D2B0",
"<. c #F0D3B1",
"1. c #F1D3B1",
"2. c #F0D1B2",
"3. c #F1D2B3",
"4. c #F2D5B3",
"5. c #F7D5B0",
"6. c #F6D5B2",
"7. c #F4D6B2",
"8. c #F1D2B5",
"9. c #F2D3B4",
"0. c #F3D4B5",
"q. c #F3D6B6",
"w. c #F5D7B5",
"e. c #F4D5B6",
"r. c #F5D6B7",
"t. c #F4D7B7",
"y. c #F3D3B3",
"u. c #F8D6B3",
"i. c #F2D8B7",
"p. c #F2D8B7",
"a. c #F9D8B7",
"s. c #F2D7B9",
"d. c #F5D6B9",
"f. c #F6D7B8",
"g. c #F6D7BA",
"h. c #F6D7BB",
"j. c #F3D6B9",
"k. c #F1D8B9",
"l. c #F3DABB",
"z. c #F6D9B9",
"x. c #F7D8BB",
"c. c #F7D8BC",
"v. c #F4DBBC",
"b. c #F5DCBD",
"n. c #F6DDBE",
"m. c #F4D9BA",
"M. c #F8D9BC",
"N. c #F8D9BD",
"B. c #F9DABD",
"V. c #F9DABE",
"C. c #FADBBC",
"Z. c #FCDFC1",
/* pixels */
"O O O O > > > > O O O @ @ > > > @ @ @ @ @ @ @ > , , > > > > & & & & & & & & & & & & $ $ & & & & 4 4 4 4 4 p y f 4 4 4 & 4 4 4 $ ",
"q r r r k k l l k k k k l l z z N N N N M l N S N N S S ) ) ) _ q.q.q.q.q.q.q.q.t.q.y.8.t.d.d.t.n.n.n.B.B.B.n.B.m.B.m.d.d.B.m.8.",
"9 9 9 9 q a a a r r q a k l l M d l l d a a a d j j j j / | | | +.+.+.+.+.+.+.+.{ j j j / y.y.{ y.y.y.y.{ / { { C C C j C y.C g ",
"r r r k k l l l l l l l l M z S l l l d a a a a j j / | | *.-.-.*.*.*.*.*.*.*.*.j h g g j j j j j j j j j g g g a a a p a d a 0 ",
"r r r r k l l l k d d d d l M M G G G G d a d d j j { | | *.*.-.*.*.*.*.*.*.*.*.y./ j j { y.y.y.y.y.y.L L j j j d j j a j j j p ",
"9 9 9 9 q a a a q q q a a a d d d j j d a a a d j j j { { | | | +.+.+.+.+.+.+.+.y./ j j { y.8.y.y.y.y.y.y.y.y.y.L y.{ L L 1.{ j ",
"t t k k z z z z l l l G G G U U G G G G j d j I 6.6.6.6.t.t.i.s.m.m.m.m.m.m.m.m.t.8.y.y.q.t.t.t.d.d.d.d.n.n.n.n.m.n.n.m.m.n.n.+.",
", , , , < 2 2 2 0 0 0 0 0 0 a a 0 0 0 0 0 0 0 0 q q 0 p p p p p p p p p p p p p p p p p p f f f f f h Q Q Q Q E h h h i h E h y ",
"; ; ; ; ; ; ; ; = . . = ; = = = * * * * * * * * o = = o = = =   ; ; ; ; ; ; ; ; ; ; ; ; ; ; ; ; ; ; ; ; = = ; ; ; ; ; ; ; ; ; ; ",
"r r r r r r r r r < < 9 r r 9 r r r r r r r r r q r r r r t r < k k k k k k k k k k k k k k k k k k k q q q r k k k k k k k k k ",
"a a a a a a a a k q 2 q k q q q a a r r q q q q q a a q q d q < q q q q q q q q a a a a a a a a a a a q q 2 q a a a a a a a a a ",
"G G G G G G G G G a a M G l l l l l l M l l l l a d d a d G d 0 j j j j j j j j j j j j j d j j C C C j d d j C G C C C G G G G ",
"j j j j j j d j d a 0 a d d a d d d d d j d d j a j d a d G d 0 j j j j j j j j C C C C C C C C U U U G j j G U U U U U U U U U ",
"d d d d d d d d d q q a d a a d d d l d d d d d a a a a a d a 0 a a a a a a a a G G G G j j j j d d d a a a a d a a a a a a a a ",
"T T T T T T T T N k k l T l l l l l l l l l l l d l l k l l l q k k k k k k k k l l l l l l l l l l l d q q d l q q q q q q q q ",
"O O O O O O O O ; O O O , ; O ; ; ; ; ; ; ; ; ; O , , + + , + O + + + + + + + + O O O O O O O O + + + O O O O + , , , , , , , , ",
"1 1 1 0 0 0 0 0 1 1 5 5 p p p p 0 p p 0 & & 0 p 0 0 0 0 0 0 0 0 6 6 0 0 0 0 0 0 p 1 # 0 0 0 0 0 p p p p p d p 0 p y 6 6 p p p p ",
"T T T T U U U U C ) y.) y.y.y.y.y.6.6.y.y.y.y.t.y.y.y.y.1.1.1.1.1.1.1.1.y.y.y.y.U d a j U I G I U j j j C C j j 1.1.1.t.t.6.C j ",
"d d j j j l l l j j j j j C C C j C U j j j j y.q.q.s.s.d.d.m.m.v.v.m.m.m.d.d.d.5.G j U 5.6.U Y U y.U C j j U y.d j j U U j p 1 ",
"d d j j j j j l C C C C C y.) ) j U U C j j C y.E { { { { { } } ......} { E E E I a p d G j j j j L C j g g j 1.j L U 6.6.U d 0 ",
"a d d d d d d d C C C C C ) C C j j U j j j j U } | | | +.+.+.+.*.+.+.+.| { / / j p 0 a j d a a y.y.y.C j j y.t.J I U Y 5.U N l ",
"a a a d d d d d j j j j j j j j j j j j j j j C q.q.q.s.s.d.d.d.m.s.m.q.q.8.8.8.U d a j U I I I U U U j j j U y.a a a d d l a a ",
"I I T T U U U U y.y.y.y.y.y.y.y.6.t.t.t.y.y.t.a.j j L L L L L L L L L L C C C C U j a j U U I I j g g g j j j g I j l G N N l k ",
"0 0 0 0 0 0 0 0 p p d d d d d d p p p p p p p d a a a a d d d d a a a a d d d l j 0 0 a j d a a j g a g j U j a a a a d d q q , ",
"= = = = = = = = = . . o = = o = = = = = = = = = = = = = = ; = . @ @ @ > > > > > @ @ @ @ @ @ @ @ O O O X X X O @ = = = = = = = = ",
"q q q q q q q q r 9 < 9 q 9 9 r q q r r q q q q r k k t t k r 9 q q q q w w q q q q q q q q q r w w w q q q w k k k k k k k k k ",
"q q q q q q q q a 1 1 q q q q q q q q q q q q q q a q q q a q > 9 9 9 9 8 8 8 8 9 9 9 9 9 9 9 9 8 8 8 8 : 8 8 9 q q q q q q q q ",
"j j j j j M j M C d d j G j j G j j j j j j j j a j d a d j d 1 d d w w w w w w l l l l l l l l w w w w 0 w q w a a a a a a a a ",
"C C C C C C C C y.j j C y.C C y.C C C C C C C C C C C j C C j p j j j j C C C C / / / / / / / / C ) ) j j j C y.G G G G G G G G ",
"j j j j j j j j G a a d j j j j j j j j j j j j a j d a a j d 0 g g g V V ` ` ` E E E E E E E E V ` ` V g g V ` I I I U I I I I ",
"N N N N N N N N N d d G N G G N N N N N N N N N l G G d l G d q l l l l l l l l l l l l l l l l k l k k a a k l G G G G G G G G ",
", , > > > > > > 1 @ @ > , > > > > > > > > > > > 1 1 1 1 1 q 1 @ - - - - - o o o = = = = = = = = - - - - o o - : > > > > > > # # ",
"O ; , , , 2 2 2 < < < 1 1 1 2 q 1 > 1 1 1 > > q p p p p p p p p 5 p p p p p p p p & & & p 4 4 p & & & & 5 p p p y y y y y u y % ",
"t t k k z z z z q q q q a a a a l l l l l a a N j j j j j / E E ) ) ) ) ) ) ) ) x.8.y.t.m.t.t.m.x.x.x.x.x.x.x.x.B.V.V.B.V.Z.V.q.",
"9 9 q q q q 2 2 k k k l l l M z N l G G l a d G U U y.y.8.q.q.s.d.d.d.d.s.s.s.s.y.h g j { / j { y.y.y.y.y.y.y.y.L y.y.L y.1.y.g ",
"q q r t k k k k k k k k l l M z l d d d a 0 q a G G C U y.8.q.s.| | | | } } } } y.h g j { j j { / / j j j j j h a a a a a d a 0 ",
"r r k k z z z z k k k l l l M M G j j j d a a d G j C C y.8.q.8.} } } } } } } } q./ j y.8.y.y.q.{ { { { { j j j a d d a a j a 0 ",
"< < q 9 q a a a k k l l l M M S I G j I j a d G U U y.y.8.q.q.s.s.s.s.*.*.*.*.s.y.j h / y./ / y.{ { { { { { { { j L L j L y.L s ",
"r r k k z z z z k k k a l l M M j a d j a a a G C U C U { { | | 8.q.q.q.q.q.q.q.d.y.{ q.t.t.q.d.i.m.m.m.m.m.m.m.m.V.n.m.B.Z.n.q.",
"q q q q q q q q q q q a a a a a a a a d a p a j d d j g g h h h g s s s s g g g j p p s h g g h h h h h h j j j h { { E E } E h ",
"= = = = = = = = *     . = . . . . . . . . . . . . . * . = = =   = = = = = = = = ; ; ; ; ; ; ; ; ; ; ; ; = = ; > ; ; ; ; ; ; ; ; ",
"r r r r r r r t r 9 < r t r r r r r r r r r r r 9 r r 9 r r r < q q q q q q q q r r k r k k r r q k k r q q k k q q q q q q q q ",
"a a a a a a a a k q q q k q q q k k k k k k k k q q q q q k q , q q q q q q q q q q q q q q q q q q p q q 2 q a l l l l l l l l ",
"M M j j j j j j l a a d l d d l l l l l l l l l l G G l l G d q j j j j j j j j j j j j j j j j d j j d d d j G d j d j d d d d ",
"j j j j j j j j d a a d d d d d l d d d d d d d d G G d d G d 0 C C C C C C C C C C C C C C C C j G G j j j j U C C C C C C C C ",
"d d d d d d d d d q q a d a a d d d d d d d d d a a a a a d a 1 d d d d d d d d d d d d d d d d a a d a a a a d G G G G G G G G ",
"N N N N N N N N l d a l l l l l l l l l l l l l d l l k l l l q G G G G G G G G l l l l l l l l k l l l d d l l q q q q q q q q ",
"> > > > > > > > , ; O , < , , , , , , , , , , , ; , , , , < < O > > > > > > > > , , , , , , , , + , , , O O , , < < < < < < < < ",
"1 1 1 0 1 0 0 0 & & 1 1 1 1 & & & & & & & @ & 1 & & 1 1 0 0 0 0 & & & & & & & 1 0 # # # 1 # # 0 0 0 1 0 p p 0 & p p & 1 1 p 5 2 ",
"G G I I I T T T y.y.y.y.y.y.y.y.t.y.y.t.y.U y.a.{ { y.y.y.1.1.1.t.t.t.t.t.t.t.t.u.U I Y 5.Y Y 5.6.6.t.t.t.t.t.t.1.1.6.t.a.y.S M ",
"d d d j d j j j j j j C C j j j j j j C j g j y.s.s.d.d.d.m.m.m.+.+.+...{ { { { I a a j G j j G g j j g d d j C j j U y.y.C a 2 ",
"j j j l l l l l C C C C C C C C j j j j j a g U { { { { { { { { $.+.....{ { j j j a p a j d d j j U y.j a d j t.j L y.a.a.y.j p ",
"d d d d d d j j C C C y.y.y.C C U j j U j g j y.} { { | | +.+.+.$.+.+...{ { j j G a a j j d d G 6.a.a.6.C j t.C.L L y.y.y.y.C j ",
"a a a a a a a a j j j j j j j j j g j j g p g U q.q.q.q.s.d.s.d.{ { H j j j h h j a 0 a d a a d g j j j d d j C s s p d g j a a ",
"I I I T T T T U C ) y.y.y.y.y.C 6.y.y.y.y.j U t.L L L L L y.y.y.q.q.q.8.y.y.y.y.Y j j G U I G U j j j j j j j j L j j C C C M a ",
"q q q q a a a a g j j j j j j g g p a g a p p j d d d j j j j j g g g g j j j j a 0 0 a a a a a g g g j j j g a g g g j j d p 1 ",
"= = = = = = = = = . . = = = o = = = = = = = = = = ; ; ; ; > ; . > > > > > > > > @ @ @ @ @ @ @ @ @ > > @ X X @ > O O O O O O O O ",
"r r q r r r r r < , , < 9 < < 9 9 9 9 9 9 9 9 9 < 9 9 2 9 q 2 , q q q q q q q q q q q q q q q q 9 q q 9 < < 9 q w w w q w w q q ",
"0 q q q q q q q a q q a a a a a a a a a a a a a q a a q q k q 1 w w w w w w w w r 9 r r r r r r 9 w w 9 9 9 9 w a a a d d d d d ",
"j j j j j j j d d a p d j d d d d d d d d d d d a d d a a d a 0 w w w w q q q q a q q q a a a a w w w w 8 0 w w 0 0 0 q q q q q ",
"y.y.y.y.y.y.y.y.C j j C y.C C C C C C C C C C C j I G j j I j 0 C j C C C C C C / / / / / / / / j j j j g g j C j l l G I I I I ",
"j j j j j j d d U j d C U C G U C C C C C C C C G I I j G G d 0 ` ` ` ` ` ` ` ` | | | | | | | | ` ) ` ` V V ` ` U U U U Y Y Y Y ",
"N N N N N N N N l a a d l d d l d d d d l l l d M M M a a M a 2 q q q a a a a a d d d d d d d d d d d q q q d l j j j j j d d d ",
"a q q q a a a a l a q l l l a l a a a a k k k a M z M l l M a 2 7 7 7 7 7 7 7 7 3 3 3 3 3 3 3 3 9 9 9 7 7 7 9 e a a a a a a a p "
};
