/* XPM */
static char *_c13ebe40e994c1db365caeac78132bbIlBgNLM8A2vZ6WqF[] = {
/* columns rows colors chars-per-pixel */
"64 64 213 2 ",
"   c #020305",
".  c #090707",
"X  c #0C0B07",
"o  c #060608",
"O  c #080709",
"+  c #0D0B0B",
"@  c #120D0C",
"#  c #1A0F0C",
"$  c #141007",
"%  c #15110B",
"&  c #1A140B",
"*  c #1F190C",
"=  c #151211",
"-  c #1A1514",
";  c #1E1A14",
":  c #1D1A19",
">  c #21120E",
",  c #241C0D",
"<  c #281F0E",
"1  c #241613",
"2  c #2B1610",
"3  c #221B14",
"4  c #2C1914",
"5  c #231D1A",
"6  c #291C19",
"7  c #341A13",
"8  c #3A1D15",
"9  c #2B220E",
"0  c #30260F",
"q  c #35290F",
"w  c #26211D",
"e  c #2B231C",
"r  c #312610",
"t  c #352911",
"y  c #3A2D11",
"u  c #39251B",
"i  c #3F3112",
"p  c #272221",
"a  c #2C2522",
"s  c #2F2925",
"d  c #342B25",
"f  c #392D25",
"g  c #342D2A",
"h  c #35302B",
"j  c #3C332C",
"k  c #3D3530",
"l  c #422117",
"z  c #442218",
"x  c #4B261A",
"c  c #53291D",
"v  c #5A2D1F",
"b  c #443414",
"n  c #463617",
"m  c #4C3B16",
"M  c #513F17",
"N  c #513F18",
"B  c #44362D",
"V  c #50352E",
"C  c #423632",
"Z  c #443A32",
"A  c #4A3C35",
"S  c #4A3D39",
"D  c #553A32",
"F  c #602F21",
"G  c #643122",
"H  c #683323",
"J  c #574319",
"K  c #584419",
"L  c #574421",
"P  c #4C4136",
"I  c #4E423B",
"U  c #51443D",
"Y  c #5C473A",
"T  c #55493D",
"R  c #644137",
"E  c #64433A",
"W  c #6B453A",
"Q  c #7B4939",
"!  c #6A5535",
"~  c #554641",
"^  c #554C42",
"/  c #5A4C43",
"(  c #5D5146",
")  c #624F47",
"_  c #645446",
"`  c #64524A",
"'  c #69564E",
"]  c #6D5C4C",
"[  c #725247",
"{  c #77594B",
"}  c #675C50",
"|  c #6C5A51",
" . c #715D54",
".. c #79624A",
"X. c #786757",
"o. c #766159",
"O. c #7C655B",
"+. c #7C6E61",
"@. c #835C4E",
"#. c #896556",
"$. c #826A5D",
"%. c #8D6B5A",
"&. c #926B5C",
"*. c #85725F",
"=. c #947655",
"-. c #846C62",
";. c #8A7364",
":. c #8A7865",
">. c #8E7469",
",. c #937B63",
"<. c #977B69",
"1. c #947B6C",
"2. c #9B7D72",
"3. c #95816C",
"4. c #9B836B",
"5. c #9C8374",
"6. c #9A8875",
"7. c #A6876B",
"8. c #A78975",
"9. c #A68679",
"0. c #A58D7A",
"q. c #AB8A7C",
"w. c #A3907D",
"e. c #AC957D",
"r. c #B99A7D",
"t. c #C29C7B",
"y. c #F1A279",
"u. c #B08E80",
"i. c #AB9782",
"p. c #B59284",
"a. c #B99587",
"s. c #B49D84",
"d. c #B99E83",
"f. c #BC9788",
"g. c #BE998A",
"h. c #BDA185",
"j. c #BBA48B",
"k. c #BBA790",
"l. c #C39D8E",
"z. c #C3A486",
"x. c #C7A789",
"c. c #CBAA8B",
"v. c #D3AA86",
"b. c #D4AE8B",
"n. c #D4B08E",
"m. c #DDB38C",
"M. c #C7A191",
"N. c #CBA393",
"B. c #D2A995",
"V. c #DAAE97",
"C. c #D4AA99",
"Z. c #DAAE9B",
"A. c #CCB195",
"S. c #CDB49B",
"D. c #D3B393",
"F. c #DEB691",
"G. c #DEB995",
"H. c #DDB19F",
"J. c #DDBD9C",
"K. c #F3AB87",
"L. c #E2B48C",
"P. c #E5B88E",
"I. c #F7B18F",
"U. c #E1B791",
"Y. c #E4BA93",
"T. c #EABD94",
"R. c #E4B39B",
"E. c #E4BE9B",
"W. c #E9BF99",
"Q. c #F5B597",
"!. c #DAB8A3",
"~. c #D9BEA1",
"^. c #E3B6A4",
"/. c #E6B8A5",
"(. c #E8BAA7",
"). c #EBBCAA",
"_. c #F5BFA8",
"`. c #EDC196",
"'. c #E6C19C",
"]. c #EDC49C",
"[. c #EEC89F",
"{. c #F1C49C",
"}. c #F0C99F",
"|. c #DEC3A6",
" X c #E5C3A2",
".X c #EDC6A1",
"XX c #EECAA4",
"oX c #E1C6AA",
"OX c #EBC5AA",
"+X c #E6CAAC",
"@X c #EECDAB",
"#X c #F0C6A1",
"$X c #F0CAA5",
"%X c #F2C2AE",
"&X c #FAC4AE",
"*X c #F0CDAA",
"=X c #F1CFAD",
"-X c #EFD0AE",
";X c #F1D0AE",
":X c #EBCEB0",
">X c #F6C5B1",
",X c #F9C7B3",
"<X c #F1CFB0",
"1X c #FDCAB5",
"2X c #FFCDB9",
"3X c #EED2B2",
"4X c #EFD2B3",
"5X c #EED6B9",
"6X c #EFD8BC",
"7X c #F1D2B2",
"8X c #F1D2B3",
"9X c #F1D6B9",
"0X c #F1D9BE",
/* pixels */
"W.W.'.'.'.'.W.'.'.`.'.'.W.W.W.E.W.'.'.'.'.W.E. X'.'. X.X.X.X X.X.X.XOXOX.X.X.X@XXX X X.X@X X X XXX+X+X+X+X@X@X@X@X:X:X:X:X@X@X@X",
"].].].].].].].].].].]..X.XXXXXXX$X$XXXXXXX.X.X@X@X@X@X@X@X@X@X@X@X7X7X9X7X7X@Xj.X.( ^ ` :.s.|.9X9X9X5X5X5X5X5X5X5X5X9X5X6X6X5X5X",
"].].].].].].].].XXXXXXXX#XXXXXXXXXXXXX@X@X.XXX@X@X@X-X7X3X3X3X9X:XS.i.6.6.k.X.- X $ $ $ X % k 3.oX9X7X3X3X3X3X3X9X5X7X3X3X-X@X-X",
"].].].].].].$X@X@X].`.#X*X*X@X*X=X$X$X$X].`.`.].].XX*X=XXX=X+Xw.U : X . O = X t m J J J m y * X C r.*X*X*X=X;X7X;X=XXXXX].`.].XX",
"].#XXXXXXX#X$X$XXX].].{.$X$XXXXX*X*X@X@X*X.X.X*X*X=X7X7X7XS.^ + & r b m b t b K J J J J K K J b & - :.@X7X@X@X@X*X@X@X;X<X<X@X@X",
"].].].[.XXXXXXXXXXXXXX#X#XXXXXXXXXXXXXXX@X.X.X@X@X@X3X7XS.k $ i J K K K K K K J J J J J J J J K J 0 % +.:X5X3X3X3X5X5X5X5X5X5X5X",
"XX[.[.[.XXXXXXXXXXXXXXXXXXXX@X@X@X@X@X@X@XXXXX3X7X7X7XoXU & m K J J J J J J J J J J J J J J J J J J y % :.9X9X5X5X5X5X5X5X5X5X5X",
"T.W.W.E.E.'.E.'.'.'.'.'.'.'.'.'.'.'.'.'.'.Y.W.'.'.'.'.*.& m K J J J J J J J J J J J J J J J J J J J K y - e.+X+X+X+X+X+X+X@X+X+X",
"Y.Y.Y.Y.Y.Y.Y.Y.Y.L.Y.Y.P.P.P.P.P.P.P.P.P.P.P.P.P.P.t.5 y K J J J J J J J J J J J J J J J J J J J J J J 9 f v.T.Y.L.T.T.T.T.T.T.",
"].].].].].].].].{.T.].].`.`.`.].].].].{.{.].].].{.].] * J J J J J J J J J J J J J J J J J J J J J J J K M & $.{.].Y.].].].].].].",
"#X#X#X.X.X.X.X.X.XW..X.X.X.X.X.XXXXX#X#XXX.X.X.X$Xc.w b K J J J J J J J J J J J J J J J J J J J J J J J K y e n.].W..X.X.X.X.X.X",
"XXXXXXXXXXXXXXXXXX'.XXXXXX$X$XXX$XXX$X$XXXXXXXXX*X;.* J J J J J J J J J J J J J J J J J J J J J J J J J J J & :.$X'.*XXXXXXXXXXX",
"#X#XXX$XXXXXXXXXXX'.XXXXXXXXXXXXXXXXXXXXXXXXXXXXE.j y K J J J J J K J J J J J J J J J J J J J J J J J J J K t C  X.X-X-X-X-X3X3X",
"@X@X@X@X@X@XXXXXXXE..XXXXXXXXXXXXXXXXXXXXXXXXX*Xs.; m J J J J J J m M K J J J J J J J J J J J J J J J J J K m ; s..X@XXXXXXXXXXX",
"@XXXXXXX@X@XXXXXXX'.XXXX.X.XXX.X.X.X]..XXX.X.X#XX., J J J J J J N & $ m K J J J J J J J J J J J J J J J J J J , ..'.].].].].].].",
"Y.Y.Y.Y.Y.Y.Y.Y.Y.m.U.Y.Y.Y.Y.Y.Y.Y.Y.Y.Y.Y.Y.m.Z y K J K J J K t d S $ m K J J J J J J J J J J J J J J J J K y j v.Y.Y.Y.Y.Y.Y.",
"'.'.'.'.'.'.'.'.'.'.'.'.'.'.'.'.'.'.'.'.'.E.E.c.e m K m y J J J * 1.R.Z , J J J J J J J J J J J J J J J J J K m 3 h..X X X X X X",
"*X@X-X@X-X-X-X-X-X;X7X7X7X7X7X7X;X-X-X;X7XXX=Xj.3 M K y * J K b a V.I.l.; b K K m 9 N J J J J J J J J J J K J J , 6.7X@X@X@X@X@X",
"XXXXXXXX@X@X@X@X@X@X@X@X@X=X@X:X@X@X-X3X3X@X:X0., J K r < K K 9 ) I.K.&X ., J K m $ b K J J J K K J J J J m N K 9 o.-X@X@X@X3X3X",
"*X*X$XXX@X-X-X-X@X;X*X*XXXXX*X;X=X@X@X@X@X+X@X1., M N 9 9 K J * 8.y.y.&XC.5 b K J $ 9 K J J K b b K J J J , y K y I +X7X7X-XXX-X",
"].].].$XXX].]..XXXXX;X7X;X;X;X;X*X$X*XXX$XXX*X3., , t , t K b e Z.K.Q.&X1X| , J J $ X m K J K 9 & J J J K < r K b d J.0X6X-XXXXX",
"XXXXXXXXXXXXXXXX*X@X;X=X=X@X@X@X*X=X<X7X;XXX@Xs.% o y , t K q ~ >XI._.1X1Xl.; m N ; : t K J K 9 o i K J K r 9 K m e A.@XXXXXXXXX",
"@X@X@X@X@X@X@X@X@X@X@X=X=X<X:X7X<X7X3X3X7X+X@X+XO.- b < r K , >.2X_.&X1X1X%XA q m e -.& m K J 9 p , J J K t , K M 3 d.$XXXXXXXXX",
".X.X.XXXXXXXXXXXXXXXXXXXXXXXXXXXXXXXXXXXXX X.X@XE.j b 9 9 M 3 l.V.=.7.B.>X2X1., i j ^.I , J J , o.e m K K t , J J , 0.@X+XXX@X@X",
"U.U.L.L.L.L.m.L.L.m.L.L.L.L.L.L.L.L.U.U.U.U.m.U.x.e m t , b f ).r.b i L =.R.N.3 * ' 1Xl.5 t J , 9./ 9 K K r , K J , ,.Y.F.Y.Y.Y.",
"].].].].].].].].].Y.].].].].].].].].].].].].].].b.e m i * 9 ` ^.) a h 3 q ../.S + a.1X,Xo.X t & ! $.3 J K 9 9 J J , 4.#X].].].].",
"`.`.`.`.`.`.`.`.`.Y.].].].].].].].].].].].].].].F.f b m @ % 1.`  .H.).p.h Y _.g.9.>X1XV.! $   o b 8.a b K , t 9 , & 8.{.].].].].",
"XXXXXXXX@XXXXX@X@X'.XX@XXXXXXXXXXXXXXXXXXXXXXXXX'.B b b o p -.' >X>X^.1Xg.~ (.1X1X1X1XV.u j O. .f 1.' 9 J & b , = P m.].].].].].",
"=X@X@X=X@X@X@X@X@X.X=X=X*X=X=X@X@X@X@X@X@X@X*X*XXX/ q y j a.` l.1XO.w 2.1X .p.1X1X1X1X2.) /.2X2XM.I -.; t $ m , ,.J.*X*X@X*X*X@X",
"=X*X@X@X@X@X@X@X@X X@X@X@X=X=X@X@X@X@X=X=X=X@X@X;X3.& 0 S g.` %XC.-   j %X9.;.1X1X1X/./ C.).2.g.2X9.` U   , M 3 d.XX=X@X@X:X@X@X",
"*X*X*X*X$X$X$X*X*X].*X*X$X$X$X$XXXXXXXXXXXXXXXXX$XG.j X - s ` 1Xl.+   p (.l.o.%X1X2Xa.o.1X;.  w Z.).` a.S , m e x.'.$X*X*X=X=X=X",
"'.'.'.'.'.'.'.'.'.Y.'.'.'.'.'.'.'.'.'.'.'.'.].].'.'.T   U q. .1X^.a   U ,XM.s S ` O./ 9.,XS   o q.1Xo.M.5., i f m.Y.'.'.'.'.'.'.",
"L.U.Y.Y.Y.Y.U.U.U.U.Y.U.U.U.U.U.U.Y.Y.Y.Y.F.F.Y.Y.G.) S I C.' %X1Xu.' N.2Xu.` 9.>. .j p.1XI   o p.2X$.-.o., * ] Y.U.Y.U.U.U.Y.Y.",
"{.#X.X.X].].].{.[.[.].].#X]..X.X.X#XXXXXXX'.].XX$X*X;.Z j Z.` C.1X1X1X1X1XO.q.2X1X2X>.q.2X5.@ C /.1XO.g :   g ~.9X9X9X9X9X9X5X5X",
"].].].].].].].].].].XX.XXXXXXXXXXXXXXX@X@X XD.J. X XA.P = f.1.O.1X1X1X1XB.~ ^.1X1X1X9.;.1X>Xl.H.1X%X' M.U + } 9X5X5X5X5X9X5X5X9X",
"].].].].].].].XXXXXX].XX$XXXXX@X@XXXXXXX$Xz.a a g j Z k O ` !.U 1.%X,XC.~ 2.1X1X1X1XC./ ).1X1X1X1XM.` H.C  .o.7X7X-X@XXXXX].XXXX",
"].].XXXX[.}.$X*X@X].T..X*X*X*X=X;X$X$X$X#Xv.;             + 9.N.S S / j -.>X,X1X1X1X,X .>.1X1X1X%X` 9.p.s ~ 1.;X;X*XXX$XXX].XXXX",
"].XXXXXXXX#XXXXXXXXXXX.X.XXXXXXXXX*X*X@X*X Xj               5 p./.9.1.l.,X1XM.1.M.a.1XC.S $.N.l.` ' (./ + ^ |.-X3X3X7X3X3X3X3X3X",
"].].].].]..X.X.X.XXXXXXXXXXXXXXXXXXXXXXX@X.X_                 - >.OX2X1X1X1X(.O.I q.1X1XB.) j k O.(.1.a i.oX9X5X5X5X5X5X9X5X5X5X",
"XXXXXXXXXXXXXXXX$X$XXX$X$XXXXXXX@X@X@X@X@XXX,.                  o Z 9./.1X1X1X>X(.1X1X1X1X>X/.)./.$.: 3.9X9X5X5X5X5X5X5X5X5X5X5X",
"L.L.L.L.L.L.L.L.L.m.L.L.L.L.m.m.L.L.L.L.L.L.7.+                     O d | 9.N./.%X>X,X>X%X(.N.>.g : %.G.Y.Y.Y.Y.Y.G.Y.Y.Y.Y.Y.Y.",
"'.].].].].].].].].Y.T.T.T.T.T.T.T.T.T.T.T.T.v.5                           o - s C I ~ U C s - ; / t.].].].].].].W.T.].].].].].].",
"].].].].].].].].{.T.].].].].].].].].].]..X.X'.Z                                   O Z U T ] <.x.].{.].].].].].].].T.].].].].].].",
"XXXXXX$X$XXXXXXX$X'.XXXXXXXXXXXXXXXXXXXXXXXX$X]                                   o T D.$X$X$X$X#XXXXXXXXX$X$X$X].'.XXXXXXXXXXXX",
"@XXXXX*X*X@XXX$X*X'.XX@XXXXXXXXX$XXX$X$X$X$X*X3.                                      j z.*XXX@X*X*X=X=XXXD.e.X.] D.=X=X@X@X@X@X",
"XXXXXXXXXXXXXXXXXX'.XXXXXXXXXXXXXXXX*X*X*X*X*Xd.+                                       w i.7X7X@X~.s.-.I w = = 5 c.;X-X@X@X@X@X",
"@X@X@X@X@X@X@X@XXX'.XXXXXXXXXXXXXXXXXXXXXXXXXXD.w                                         I d.;.T a = - f E #.{ d b.XXXX.XXX.X.X",
"]..X.X.X.X.X.X.X.XW.]..X.X].].].].].].].].].].'.Z                         o A -         @ @ @ - d Y @.&.%.[ B ; d b.].].].].].].",
"m.m.m.m.m.m.m.m.m.m.m.m.m.F.U.Y.Y.U.m.m.m.m.m.m._                         d <.B       o C - = { &.{ A 6 = : j _ 7.m.F.F.F.F.F.F.",
"@X@X@X@X@X@X@X@X@X@X=X7X=XJ.h.0.r.A. X=X=X.X.X;X5.o                       = - - e +   p d | A - = - j ] 6.S.+X7X3X-X3X3X-X-X3X3X",
"XXXX@X@X@X@X@X@X@X7XXXj.| s = + @ 5 I 3.~.@X@X9Xj.@                 o 6 @ B { %.%.f   @ d C.U P 5.x. X@X;X;X@X@X@X@X@X@X@X@X@X@X",
"XXXXXXXX@X=X@X;X;Xx.( = # 7 x c x 8 > + s :.x.6.U O               + B R 1 Y Y d - - g h 5 / s A.7X<X=X@X@X@X@XXXXX@X-X@X-X-X3X5X",
"XXXX#XXXXXXXXXXX3.5 # l F H H H H H H c 4 @ - @ 6 ;             - V W R - @ e T :.j.J.G.] d ,.XX*X@X@X-X@X@X5X9XXX`.XX6X9X3XXXXX",
".X.X].XXXX].T.X.@ 7 F H H H H H H H H H H z 1 W Q D           @ D W W D w e.~.XX;X;X*X$X.XG.].$X$XXXXX@X@X-X3X3X@XXX-X3X-XXXXXXX",
"$XXXXXXX@X;Xe.@ 8 c c G H H H H H H H H H v 6 @.Q [ o         O V W R 6 ( 3X3X3X3X3X7X3X3X+X@X-X@X-X@X@X@X@X@X@X@X@XXXXXXXXXXXXX",
"*X@X@X@X@X;Xe.= + . . x H H H H H H H H H F 1 { W [ O   a I o   6 R e w z.;X*X*X*X*X*X*X*X.XXX@X@X@X@X*X$X$X*X*X$X*X@XXXXXXXXX@X",
"Y.Y.Y.Y.Y.Y.r.d   # l G H H H H H H H H H H > 6 % @ o f r.x.5   O 3 - 4.'.'.'. X X'.'.'.E.G.E.E.E.E.E.E.E.E.E.E.E.E.E.E.E.'. X X",
"E.E.E.E.W.7.e # l G H H H H H H H H H H H v % j ] ,.4.v.T.T...    5 7.W.T.W.W.W.W.W.T.W.W.T.T.T.W.W.W.W.W.Y.Y.W.Y.m.T.T.T.W.W.W.",
"`.`.`.`.Y.j # c H H H H H H H H H H H H H 2 P U.{.{.{.].].{.v.5 + 7.{.].].].].].].].].].].].].].].].].].].].].].'.W.].].].].].].",
"].].].].'._ + # 2 8 c H H H H H H H H H l ; r.#X].].].]..X.X.X7.X.F.].].].].].].].].].].].].].].].].].].].].].].].Y.].].].].].].",
"@X@X@X@X=X X0./ O   & H H H H H H H H z @ :.@XXXXXXXXXXXXXXXXX$XXX'.XXXXXXXXXXXX.X.XXXXXXXXXXXXXXXXXXXXXXXXX.XXX.XE.XXXXXXXXXXXX",
"@X@X@X=X@X@X7X8.O 1 c H H H H H H F 7 @ O.+X@X@X@X@X@X*X*X@X@X@X@X'.@X@X=X@X@X@X@X@X@X@X<X:X@X@X=X=X=X=X=X=X@X=X@X.X=X=X=X=X@X=X",
"*X=X=X=X=X=X;Xz.a @ 2 u x c c x 7 # 5 1.+X*X@X@X*XXXXX*X$XXXXX$XXX'.*X*X*X*X*X=X=X=X=X=X=X=X=X=X=X=X=X=X=X@X@X*XXX X*X=X@X@X=X=X",
"#X#X$XXXXX$XXX$Xx.] a O o . . o = ( z.$XXXXXXXXXXXXX.X.X].].].].].Y.{.{.].].].].].].].].].].].].].].].].].].].].].W.XX#X$X*X*X*X"
};
