/* XPM */
static char *c14757328e0e4218f19b7fb1dba8277a804ywAxW8188uuAA[] = {
/* columns rows colors chars-per-pixel */
"64 64 185 2 ",
"   c #413E39",
".  c #3D423C",
"X  c #43463D",
"o  c #4A473E",
"O  c #4B493D",
"+  c #434742",
"@  c #454A47",
"#  c #4B4C43",
"$  c #4B4D4A",
"%  c #554E44",
"&  c #524E4B",
"*  c #47504D",
"=  c #4D524C",
"-  c #53544E",
";  c #5B554C",
":  c #5B594E",
">  c #4C5452",
",  c #555651",
"<  c #5B5651",
"1  c #545A54",
"2  c #5B5B54",
"3  c #555C59",
"4  c #5C5E5A",
"5  c #61594F",
"6  c #605752",
"7  c #645D55",
"8  c #685F56",
"9  c #625E59",
"0  c #685F58",
"q  c #5D6056",
"w  c #57605D",
"e  c #5D625C",
"r  c #636156",
"t  c #686356",
"y  c #63635C",
"u  c #6A645C",
"i  c #66685E",
"p  c #6B695E",
"a  c #716A5F",
"s  c #5D6461",
"d  c #5F6968",
"f  c #646662",
"g  c #6A6661",
"h  c #656A64",
"j  c #6B6B64",
"k  c #656D6A",
"l  c #6C6E69",
"z  c #706760",
"x  c #726D64",
"c  c #7A6D64",
"v  c #726E69",
"b  c #786F68",
"n  c #6E7065",
"m  c #6D716C",
"M  c #747166",
"N  c #797266",
"B  c #73736C",
"V  c #7A756C",
"C  c #75786E",
"Z  c #7C796E",
"A  c #6D7471",
"S  c #6F7873",
"D  c #747671",
"F  c #7A7672",
"G  c #757974",
"H  c #797A72",
"J  c #7F7870",
"K  c #7D7A73",
"L  c #7F7C73",
"P  c #7A7974",
"I  c #787B74",
"U  c #787876",
"Y  c #7C7B74",
"T  c #727B78",
"R  c #757978",
"E  c #757C78",
"W  c #787D79",
"Q  c #797E78",
"!  c #7B7D7A",
"~  c #7A7F7B",
"^  c #7D7F7A",
"/  c #7E7D7B",
"(  c #787E7C",
")  c #7A7E7D",
"_  c #7B7F7E",
"`  c #7E7E7C",
"'  c #7C7D79",
"]  c #80776C",
"[  c #817B6E",
"{  c #807770",
"}  c #807973",
"|  c #807E72",
" . c #827E73",
".. c #827B75",
"X. c #827D74",
"o. c #897F75",
"O. c #827E79",
"+. c #887F78",
"@. c #7D8077",
"#. c #77807B",
"$. c #7E807B",
"%. c #7D8079",
"&. c #7B817D",
"*. c #7F817E",
"=. c #7E817C",
"-. c #848074",
";. c #848275",
":. c #848176",
">. c #8B8276",
",. c #80817B",
"<. c #868279",
"1. c #80817C",
"2. c #80807E",
"3. c #82857E",
"4. c #84837B",
"5. c #888679",
"6. c #8A857C",
"7. c #86887D",
"8. c #8C897E",
"9. c #92867A",
"0. c #938A7E",
"q. c #7D8180",
"w. c #7F8583",
"e. c #818380",
"r. c #868580",
"t. c #858583",
"y. c #848681",
"u. c #838786",
"i. c #878785",
"p. c #848581",
"a. c #8A8681",
"s. c #848887",
"d. c #868984",
"f. c #8D8882",
"g. c #888B84",
"h. c #8D8C87",
"j. c #8E8E84",
"k. c #8C8B83",
"l. c #858B89",
"z. c #868C88",
"x. c #8A8C8B",
"c. c #8C8D8A",
"v. c #908780",
"b. c #928D84",
"n. c #988E84",
"m. c #928F8A",
"M. c #8E9086",
"N. c #8E908B",
"B. c #8E918C",
"V. c #939186",
"C. c #999186",
"Z. c #94928C",
"A. c #9A958C",
"S. c #96988E",
"D. c #9C998E",
"F. c #8D9190",
"G. c #929290",
"H. c #909694",
"J. c #949591",
"K. c #9B9691",
"L. c #969893",
"P. c #969994",
"I. c #9C9A94",
"U. c #9C9E9A",
"Y. c #A09788",
"T. c #A29A8F",
"R. c #A29C93",
"E. c #A19D99",
"W. c #9EA19C",
"Q. c #A5A196",
"!. c #A9A297",
"~. c #A3A39C",
"^. c #A9A39A",
"/. c #A5A89D",
"(. c #AEAA9F",
"). c #B0AA9E",
"_. c #A5A4A1",
"`. c #A9A6A1",
"'. c #A7A8A2",
"]. c #ABAAA3",
"[. c #ABACA8",
"{. c #B5AEA4",
"}. c #B0ACA9",
"|. c #B1B1AB",
" X c #B6B5B0",
/* pixels */
"p 2 2 2 q y 1 4 m f k ~ F.l.f s f l e e m B h k h h m A s.F._ x.2.^ i.B 2 D r.l y # y j 7 x J V y r j 1 1 S A d s 3 e m U L Z N ",
"j j C C H H C g.L.l h R R A k A 4 l h f m m f 4 G h u.F._ q.R f l 2 - 2 j D B l f - y j u y z <.| 2 # X . $ w A k k f y j V N x ",
"t M p # < B j y B , y y 1 k R k h B h 2 f B B l B D R D l f 3 f , y 1 - 4 f y f ,.l j B V N u x | p q j e = 1 3 T _ m y x N b N ",
"p | Z r j H r - < - j f 4 R *.B 3.%.l y h I ^ %.~ e.D k R R D G.l r.r.U j f B I B l Q H K f...p x N p M l m &.m G ~ j f Z V z V ",
"Z Z ;.;.Z p p j.V j j B B j f ,.I h y j l h y e f - 4 j f j 2.` D j j 2.l 4 B m y h j.r.u N } p Z 5.Z V B R B.~ 1 f - # 7 p 7 7 ",
"x t M V x u M V.V N N j B j 9 F y - - f f 4 2 , f 4 4 j l l U U U v B r.D m h.D B e U O.u j N N Z [ Z | C j B h 1 l y o ; b a 5 ",
"t a 8.8.-.8.;.x x V  .M M 4.O.V C y j C B j D D B Y y l 2.m l 2.j O.U U j l d.m l e e j O.r.O.f.N t p p y y j C D 4.8.V V >.>.] ",
"V N V.8.p [ 8.;. .p V M u K 8.Z ,.H ,.,.B B Y D U C D c.2.B 2.F D i.B U ^ j Y Y m %.B f r.h.v 4.6.[ 8.K M V j B N x | 6.o.x c V ",
"N t N a [ Z [ 8.a V [ ;.;.V x N u B V.I.V.K.Q Q S.k.2.r.r.k.g.4.Z.v F Z.B f Y j 2.Y ^ r.x.L.m.F b.<.5.Z M :. .Z 4.5. .p N 0.o.V ",
"N t a t M M p a u a a x M a u g g ,.7.:.B Z B 4.H j.V.F j F U y F K F 2.^ B I I ~ %.2.U.Z.U.m.h.8.Z ;. .:.k.k.b.M - a N 0 c o.N ",
"M M -.Z ;.5.<.;.5.[ x N ;.<.V V Q.^.Z j x Z N V V 8.V.4.N V H x x V y 7 y l Y U B B B L.r.K.m.I.8.b.Q.b.K <.f.A.A.N >.6.u 7 u 7 ",
"r p M p M Z Z x p M N x p t t N  .b.Z Z p j Z N V V Q ,.K V H V V p u v j 2.L.B 4 y f Y D ^ ! K Q K K t y V x : b.f.b.>.8.f.>.b.",
"2 t r r j | Z p M V Z Z Z N b V Z 5.8.R.| | 8.x <.5.8.<.K <.8...u t V b.k.k.j.l e l d.2.` D P f B C ,.C j H F B y u x x V O.8.I.",
"j 7.4.4.H 7.b.8.N Z | ;.8.;.Z | b.Z V 8.V ;.8.M x u x M y 7 u x x O.V V K j j Y - y r.k l 4 B y - f j.k.u : g Z.Z.B h.b.y < g v ",
"m B.k.k.B B Q Q g 8.I.A. .g V A.5.;.-.6.| 5.b.(.Z u g K N y y x  .b.N y u 2 j 3.f j *.U r.2.r.v 2 , j B B B v B O.y O.4.2 & - & ",
"e m e C Q M.B.Q K  . .| K b z N 8.5.Z ;.A.b.7 L 8.,.O.Q Q ,.V < 2 2 y j f j B 3 y 4 j r.U.L.D $ + # , 2 B L.g.f $ , j l 2.m.2.U ",
"k h m m I B.U.j.<.Q V N u c a o.>.V b M <.4.B D *.H.c.x.~ h l e 1 e m k I m 3 r.U.c.r.^ B.*.*.D R h 2 m D I ` U.^ Y R U D e.x.j ",
"B.B.k 1 *.U.U.].].Z.7 g c o.o.] o.>.o.V <.V 4 B f l _ &.R k e 4 e s T #.h D c.D m.2.G.U D d.c.L.D 3 4 A f ~ z.z.H.h @ m H.B.H.U.",
"%.B.*.D h.j.Q <.b.Z.z V a 7 N a c >.6.>.n.K 2 l l f R D m k 1 e 1 1 h G 1 h Z.j 2 2 y c.^ D p.2 f f 1 f j j h r.Z.U = y x.d.*.g.",
"B q - # - H K.D.f.R.C.R.C.>.C.C.9.9.n.C.R.A.Q r.c.R D m j h y D e k h B I D 4.r.U , 2 '.m.3.I.D f 4 2 B l , 2 c.1 l f j D l l h ",
",.p 2 j <.I.A.Z ;.N N [ b.A.C.n.9.N [ o.V } Q ,.g.2.B B B j ^ k.l R %.Y B.m.^ I.4.  B ^ # y 2 U I.y B L.2 - j l 2 e D L.r.j l m ",
"| <.g p Z.R.V.A.6.| 8.o.<.;.<.0.0.>.C.C.o.V V Q U 2.B ,.,.C k.4.j j g.,.^ V.r.k.Z.B `.S.j ,.K V.L.j j %.2 y g - U y B S.r.j B j ",
"T.{.^.A.R.A.b.!.8.T.).D.5.p ;.C.o.0.A.C.C.o.u Z H Q H Q <. . .K p y ,.k.K :.f.:.O. .f.8.k.Z.~.I.8.8.C <.A.I.r.A.f.b.V.I.K.Z.I.Z.",
"} o.b.n.6.b.D.A.5.0.o.;.6.M A.b.>.Y.0.6.^.C.x b.,.B H x V 5.V Z y u j f.<.p K <.<.K A.8.A.b.N x  .V j <. .N u  .K I.I.A.V.K <.D.",
"N b.6.V b.!.R.T.C.;.V Z V V 8.Q.T.<.o.D.>.p V x g g N x 8.p t 0.u g  .t 2 V x N K x <.<. .f.| x <.R. .8.<.| N V f.V.I.I.b.V.A.A.",
"N [ N N o.V N 6.| V M | | N Z | <.A.5.| 5.V g y 9 y v u X.N u N b 7 b u u V j L V k.<.r K I.b.A.V.b.8.b.K 8.b.<.V x | A.A.f.8.f.",
"0.A.A.C.5.a a b.x ;.;.8.<.V f.b.b.A.V.V.b.K.~.2.k.,.8.V V z t a z 7 b g u N K j.4.D.V.,.b.<.y p M M <.V.8.A.b.8.8.K 8.D.A.f.8.f.",
"M | Z M N N x M | 8.V ;.8.<.m. .A.| 4.j.,.k.K.r.r.B <.4.x 5 7 N 7 0 V b u V B j 4.H 4.k.:.V M g j L L N 8.f.g  .N K f.f. . .<.<.",
"Z V.A.;.Z :.8.<.L Z.m.f.Q B ,.H <.:.Z H 4.3.^ Z.3.v r.S.| b N >.v.6.R.E.A.S.,.y B I Q H C k.K.j.k.K.K.k.]./.,.V.4.S.].[.I.V.j.k.",
"Z 4.k.:.M x K 8.g K <.C g j K r.C H 4.H D %.~ ^ ^ j l B u V } X.A.6.K./.b.Q ,.Q m 3.B m ,.H B H H B C j H Q C B Q C ,.V.k.H C H ",
"V.:.Z 4.S./.].~.L.U H B m.}.E.K.V.M.[.L.m *.d.D *.l j B x 8.b.R.m.O.m.~.h.^ V.Z.L.P.I 3.L.^ K Z.|.~.r.l Y H d.3.,.D 2.L.I.L.W.[.",
"C H 4.H M H j.S.4.C c.,.r.L.K 4.h Y B.I k I R d.r.D U c.O.K x f.r.B O.I.K.K.V.y m m f l j h B 2 l j.B l U.^ l m j I h.c.2.,.k.g.",
"Z D.S.7.c.H S.~.2.~.Z.c.B.U D l e h p.m D d.D G.J.L.L.U.z.c.i.e.~.L.U.g.D r.2.f f m f D f f j f j t n Q %.D l f = 1 B ^ H ^ r.^ ",
"f.V.k.V.k.4.V.4.U.Q ^ C D ^ B U z.~ ` p.B.B.x.U.p.x.x.G.e.c.F.G.P.h.B.2.D ^ U B f f l f f D ` ~ H t t y B d.z.B.R f f B 9 , j 4.",
"f.8.<.V. .b.V.H c.C m.L.Z.I.g.~ W.B.p.P.U.H.W.U.2.c.z.z.U i.i.r.*.I %.Q U Y D ^ D j D , f U 2.2.H j M y j %.*.d.A 4 e k f 3 j Q ",
"V.A.V.Z.K ,.O.B Z.'.~.L.2.^ c.m z.z.x.B.i.z.P.d.d.L.c.G.L.[._.U.~.W.W.L.Z.g.D I i.^ U y l ! D B F k.b.j.k.2.2.~ z.x.c.c.Z.I.V.Q ",
"K 8.f.M V N N B B E.h.B j l 2.U d.*.x.p.~ d.z.p.d.c.U ` c.'.L.Z.I.I.L.g.h.h.D l 2.r.j B D D j 4 u 8.H <.r.D p.R G p.*.D *.H.c.D ",
"<.f.f.g r.f.<.r.B r.Z.r.E.|.U.[.B.D G R R ~ R p.U.U.e.i.G.U.c.h.c.g.c.k.V.W.Z.r.c.U.U Z.G.x.2.^ O.A.F  .g.^ g.*.m R D m ~ p.4.2.",
">.X.} y u B g u 4.O.4.B r.`.Z.c.*.R h m m f m ~ ^ g.U r.m.m.U 2.Z.4.Z.S.V.L.g.U r.L.2.U ` ` U r.Z.C.4.B H B j ` x.x.3.p.B.p.m l ",
"V b } N 2  .K V b.K.4.K O.I.`.j ~ W.d.d.p.m z.x.D g.g.I.L.2.y l U.j.'. X].~.Z.r.I.~.~.l U ^ ` L.R.A.I.B l D f W.U.P.d.d.W.W.%.l ",
"y 8.Z.Z y 8.K V v K 4.v D Z.I.L.P.k s m h e y R D D r.c.O.r.Z.k.4.I.S.`.K.I.U.c.D O.l D c.g.^ K m.].h.Z.].Z.Z.W.m ~ D 4 I B B C ",
"u Z 5. .x <.V  .y g v l U c.c.B.w.> + $ e k e y ^ ^ c.Z.r.A.~.Z.Z.I.E.].U.A.Z.2.B B ^ c.r.3.Z.^ h.].h.4.L.c.x.*.f W ~ f m 2 # # ",
"g V.A.b.Z.A.f.|.g.F B j f y , 2 s A l.w.&.G k R B B 4.V.S.U.Z.N 6.} f.m.I.I.m.<.c.Z.~.'.g.D Y j j K j l l 4 B ~ m G %.3.j.B B 8.",
"V j.b.Z N H C H l h B B B m j B s m G k k k e l B B Q k.r.8.f.<.C.g N v b.Z. .v U m.2.Y ^ j h B 2.,.F ^ D h s.P.k j j m H j x ;.",
"j < y y - j 3.y 3 j %.Y B m y f T A k h R W h m B l B B 7 t <.(.n.p N b f.h.Q N Z.L.H B d.d.c.L.h.3.D k l *.l.D D %.^ ^ r.b.<.M ",
":.k.Z i j < q l - h I l f m m m k k A A m h e m l h j x x u N f.{ b X.>.f.f.6.O.V.U B U B I Y e m h h k D ~ *.D ~ l j f.A.C.>.>.",
"j S.H q H 3 q @.I Y %.l h m m m A w 3 1 1 s y h B B B  .b.f.| V +.b.b.C.6.>.4.H C j l Q B m B - , = e m m h m p.H.D j j.f.O.N <.",
"M.8.7.C B @.L.y I B R m k m 3 = 1 * w s e m k f l H V g V 5.V.D.<.b.>.C.b.Z.I.r.K k.H C ,.H Y 7.h m m h k D B R G.I.Z.j.K m.>.b ",
"5.| 8.4.j B B 4 - - e , - < # - @ > 1 3 1 3 e e y l H Z Z 8.8.k.8.H 8.I.A.b.b.8.Z N ;.V k.8.8.V.j Q j m d.g.d.h.L.c.L.h.Q  .K K ",
"N p u t y j l e 4 e l f y j 9 y l k f s e s k m d.h.@.C t ; M 4.3.l j C V K <.>.N x  .Z 8.V.V.V.N V j C k.k.3.^ I U ^ j - , y v ",
"[ V V V F C l m y y y 4 4 l C ,.h f e 4 3 1 = * m m 2 H Y p b.D.4.C C 4.8.4.;.K >.V ;.N V L L p x N C Q C j C B l B H D B K 4.K ",
"N | V M C l m c.h y 4 - - 3 y l $ , e A *.d.z.B.D D j h.Z.,.Z.Z.h.Y C Y  . . .;.X.b Z g p ;.7.M V.A.I.K.Q H j.%.I D l h j 2.J.h.",
"x 6.8.4.4.l 4 m 3 f h k m B H D R B k h e e h m D R 2.2.K F K r.Q C m m B C Z <.x t u 7 2 4.b.| K N M B j d.W.4.h.L.c.r.D D f.4.",
"N 8.k.M.Z.C - = 1 e y k B I 3.,.h.,.G m k k G d.U.I.I.r.U F g g Q Y C B C B x K x p u 7 : | :.V N x p p y ,.U.d.B 3.2.k.P g v < ",
"2 p t r l h e e h k 1 = * * e e 1 - = , 1 , 4 h f f y f v B v 9 r.%.j 2 y j x ,.Z K V N x 5.Z Z <. .V x < 2 B j C C f v j 9 V g ",
": M Q H H m e e k m e 1 1 - h y q - = - 1 , 1 e 4 l 2 f g 9 J v B B j g H H C  . .8.;.Z g V : : N y : t r 2 j l j I l U j , B B ",
"t 8.S./.S.I * 1 = 1 4 1 1 e - 1 < < y y 1 e h 3 2 y f l 2 g g g B F B B U j y j j j K V V V p K N V # O 2 C n q 2 # < p u N m.K.",
"r t y 2 H h e e e e e 1 - 1 - y i h B l 1 3 k l B B l B y j g j B l y f D D B H j V 2 y : # g g b ;.p g M Z n p - 2 - < u x x J ",
"t t r # y q e 4 s h h 1 1 3 y C Y y 2 4 y h y , , y f l g j v J r.O.B j B B m D j t B v y u b N } ;.x ;.V.I.j.,.L 8.Q <.K f.V x ",
"p 8. .M - 3 - e e e e 1 e y 2 j y 3 4 y y 4 4 4 l C U 4.6...v v g j j f y f j B j 2 <. .p x < ; 5 p 7 p 2 2 t j V j C h.9 V v ; ",
"V V.8.Z < y 4 y y 3 1 , y j - - 4 4 f j k f f k U B B Q m. .0 < 9 g j l l B B j 1 2 2 N g u o.0 t a t V p p j M p t M b.u V K V ",
"o.|  .g V C B 2 m k j h %.Z.,.C D k e y l j 4 4 l B F ,.A.>.} f.h.e.4.2.O.4.U 4 Q C N B u t g < 7 ; % M | 8.Z r - j y j g g 7 O.",
"x p M g K C B 1 4 y f 4 B r.B y f D D f f 4 1 y y j V V b.N ] A.h.O.! D v U Y y l y K j t v 6 t ; 7 u Z u p p : r C 7 : p t ; v ",
"% 5 7 u - y y f r.Z.Z.^ ,.g.j , 4 l f f U ` k f l j g V ^.C.n.R.6.O.K f - 4 m h 2 B g x z 7 g t t x x Z u M L V H H g r z N N x "
};
